<?xml version="1.0" encoding="UTF-8"?>
<svg version="1.1" xmlns="http://www.w3.org/2000/svg" width="565" height="442">
<path d="M0 0 C20.29923351 -0.07048615 40.59844173 -0.12318021 60.89777279 -0.15543652 C70.32585206 -0.17082039 79.75385472 -0.19174489 89.18188477 -0.22631836 C97.41177303 -0.25648341 105.64160574 -0.27563636 113.87154776 -0.28226548 C118.21796755 -0.28613252 122.56422861 -0.29503683 126.91059685 -0.31719017 C186.50180566 -0.60864563 186.50180566 -0.60864563 208 12 C209.19496094 12.66128906 209.19496094 12.66128906 210.4140625 13.3359375 C216.22004051 16.6511334 221.16078754 20.39861209 226 25 C226.60328125 25.56332031 227.2065625 26.12664062 227.828125 26.70703125 C229.26737024 28.0891102 230.64093408 29.53900414 232 31 C232 31.66 232 32.32 232 33 C232.92026978 33.38152222 232.92026978 33.38152222 233.85913086 33.77075195 C236.31244491 35.17940017 236.97816803 36.18023347 238.25390625 38.66796875 C238.82334961 39.76141602 238.82334961 39.76141602 239.40429688 40.87695312 C239.78650391 41.63943359 240.16871094 42.40191406 240.5625 43.1875 C240.94857422 43.93064453 241.33464844 44.67378906 241.73242188 45.43945312 C255.07340352 71.37141234 256.2696313 102.54228663 248.26171875 130.40625 C246.0866507 136.60149026 243.14528389 142.25055632 240 148 C239.41089844 149.09570312 238.82179688 150.19140625 238.21484375 151.3203125 C236.82529419 153.88917245 235.42144263 156.44869271 234 159 C233.34 159 232.68 159 232 159 C231.773125 159.556875 231.54625 160.11375 231.3125 160.6875 C229.61427198 163.67961603 227.49235804 165.61600535 225 168 C224.46761719 168.5878125 223.93523437 169.175625 223.38671875 169.78125 C211.33658172 182.78610881 189.7979767 195.14604409 172 197 C172.61937508 198.93930548 173.24570688 200.87639013 173.875 202.8125 C174.39707031 204.43091797 174.39707031 204.43091797 174.9296875 206.08203125 C175.91959653 209.13315802 175.91959653 209.13315802 178 212 C178.68553479 214.02232763 179.36613004 216.0464474 180.0234375 218.078125 C183.06979497 227.19282656 186.38273239 236.08353534 190.859375 244.59765625 C192.11718811 247.24681743 192.99814251 249.88973013 193.875 252.6875 C195.36658906 257.39683159 197.23050899 261.80784005 199.375 266.25 C201.84480749 271.37954961 204.04534572 276.5274601 206 281.875 C208.05080545 287.47898487 210.17345744 293.04072039 212.4375 298.5625 C212.7250415 299.26391113 213.01258301 299.96532227 213.30883789 300.68798828 C215.87272115 306.85299126 218.74507597 312.84942767 221.71484375 318.828125 C223 322 223 322 223 327 C193.3 327 163.6 327 133 327 C131.68 322.71 130.36 318.42 129 314 C127.80087944 311.09686602 126.60084855 308.19387024 125.359375 305.30859375 C122.02878194 297.2022365 119.20658613 288.85401447 116.5625 280.5 C115.1370232 276.13023481 113.33417176 271.92512863 111.5625 267.6875 C108.42900595 260.18999246 105.73916357 252.62912704 103.33984375 244.86328125 C101.43193947 238.86537858 99.03093916 233.09139685 96.6003418 227.2902832 C91 213.90746698 91 213.90746698 91 210 C63.775 210.495 63.775 210.495 36 211 C34.7108381 214.8674857 33.71649507 217.96987523 33.0703125 221.87109375 C32.91699463 222.76707275 32.76367676 223.66305176 32.60571289 224.58618164 C32.44707764 225.5271167 32.28844238 226.46805176 32.125 227.4375 C30.77528632 235.14229981 29.16972815 242.61180656 27.05859375 250.14453125 C23.51881409 263.03664388 20.71850514 276.1416572 17.8125 289.1875 C17.56258301 290.30930664 17.31266602 291.43111328 17.05517578 292.58691406 C15.97253754 297.48035118 14.91535447 302.37357625 13.95703125 307.29296875 C13.1031404 311.62363383 12.04678741 315.87070843 10.875 320.125 C10.54387207 321.33913574 10.21274414 322.55327148 9.87158203 323.80419922 C9.58395996 324.85881348 9.29633789 325.91342773 9 327 C-9.00991626 328.0692447 -26.90613384 327.94928785 -44.9375 327.5625 C-47.67510248 327.50829488 -50.41274503 327.45627245 -53.15039062 327.40429688 C-59.76709359 327.27704718 -66.38359408 327.14181921 -73 327 C-72.0452242 317.57404299 -72.0452242 317.57404299 -70.94921875 313.0546875 C-70.7473999 312.21373535 -70.54558105 311.3727832 -70.33764648 310.50634766 C-70.01582397 309.20383057 -70.01582397 309.20383057 -69.6875 307.875 C-69.46457275 306.95122559 -69.24164551 306.02745117 -69.01196289 305.07568359 C-67.75100418 299.89409316 -66.38718925 294.75643971 -64.9375 289.625 C-63.26061932 283.48534525 -62.15456763 277.34070998 -61.125 271.0625 C-58.9182409 257.66185809 -55.64982823 244.56406823 -52.02514648 231.48144531 C-49.59298944 222.62527776 -47.7108396 213.78709451 -46.0625 204.75 C-43.87224477 193.01317515 -41.24434427 181.49267715 -38 170 C-35.66361137 161.50602638 -34.07500538 152.96204366 -32.55493164 144.29272461 C-31.35041109 137.56590526 -29.83085238 131.05203551 -27.9296875 124.484375 C-27.20119033 121.75404106 -26.59999294 119.08193649 -26.0625 116.3125 C-24.94698689 110.57403273 -23.53262865 104.92252004 -22.125 99.25 C-20.10267551 90.99493774 -18.32063181 82.75025246 -16.875 74.375 C-15.3818889 65.73945797 -13.37343267 57.44092399 -11 49 C-8.56502082 39.83600078 -6.45939933 30.64862196 -4.65234375 21.33984375 C-3.99064959 17.95212812 -3.26983767 14.58425771 -2.50341797 11.21899414 C-1.97613932 8.89482555 -1.45772049 6.56881516 -0.94140625 4.2421875 C-0.76424072 3.44409668 -0.5870752 2.64600586 -0.40454102 1.82373047 C-0.27104248 1.22189941 -0.13754395 0.62006836 0 0 Z M70 62 C69.51870932 63.25384466 69.04026625 64.50878257 68.56298828 65.76416016 C68.29624298 66.46288239 68.02949768 67.16160461 67.75466919 67.88150024 C66.57607225 71.19004571 65.79770844 74.58532716 65 78 C64.54574156 79.82588736 64.08988801 81.6513783 63.6328125 83.4765625 C60.87921139 94.65390732 58.40562992 105.79331952 56.47802734 117.14282227 C55.27748347 123.99597924 53.60162895 130.62687261 51.57397461 137.28100586 C50.45746364 140.9975868 49.89862242 144.13394097 50 148 C59.66734268 148.06992299 69.33459651 148.12302388 79.00213814 148.15543652 C83.49256534 148.17100344 87.98281783 148.19207481 92.47314453 148.22631836 C96.81740885 148.25923564 101.16150654 148.27692023 105.50588608 148.28463173 C107.15224704 148.2901178 108.79860027 148.30082817 110.44488907 148.31719017 C125.00229957 148.45594132 137.63288652 147.49547688 150 139 C150.87914062 138.47535156 151.75828125 137.95070313 152.6640625 137.41015625 C154.82474111 136.1058001 156.39739246 134.9399986 158 133 C158 132.34 158 131.68 158 131 C158.66 131 159.32 131 160 131 C167.67570877 116.79720396 173.67393772 102.97033519 169.9375 86.5625 C168.12219572 80.48253352 165.12058161 74.84168339 161 70 C160.01 70 159.02 70 158 70 C158 69.34 158 68.68 158 68 C146.90257176 61.83476209 136.17182859 61.71597081 123.7109375 61.8046875 C122.15581445 61.80842526 120.60068901 61.81126862 119.04556274 61.81326294 C114.98497833 61.82083936 110.92454073 61.84043516 106.86401367 61.8626709 C102.70753972 61.88325961 98.55104167 61.8922923 94.39453125 61.90234375 C86.26295403 61.92368772 78.13149536 61.95774976 70 62 Z " fill="#FA35EA" transform="translate(276,62)"/>
<path d="M0 0 C34.98 0 69.96 0 106 0 C104 9 104 9 103 10 C100.25706804 10.28562763 97.51391162 10.44839273 94.76171875 10.62109375 C92.03080548 10.99577351 90.41944756 11.76782774 88 13 C86.68 13 85.36 13 84 13 C84 13.66 84 14.32 84 15 C83.278125 15.4125 82.55625 15.825 81.8125 16.25 C71.39756504 22.73040398 68.03212579 36.65348828 65.33007812 47.95532227 C64.01947883 53.67813425 62.87806811 59.4345268 61.80859375 65.20703125 C61.17349512 68.18616541 60.44989643 71.06588042 59.6328125 73.99609375 C57.67954339 81.02846448 56.06707483 88.13753935 54.4375 95.25 C53.83417507 97.8807141 53.22828275 100.5107955 52.62109375 103.140625 C52.3573999 104.29079102 52.09370605 105.44095703 51.82202148 106.62597656 C51.25130833 108.96849386 50.62511044 111.29791044 49.95605469 113.61425781 C49.1593861 116.43555506 48.5550604 119.14419063 48.08203125 122.03125 C46.87635869 128.91544076 45.28790317 135.69839488 43.6875 142.5 C43.53348724 143.15918427 43.37947449 143.81836853 43.22079468 144.49752808 C41.20367863 153.12899026 39.05248782 161.71076831 36.71044922 170.26025391 C34.87510557 177.12251043 33.56488969 184.06763748 32.34301758 191.06274414 C31.58848422 195.30776441 30.64895571 199.003942 29 203 C28.5191621 205.38751304 28.08669427 207.78498724 27.6875 210.1875 C26.50322121 216.91968142 24.87231459 223.42929849 22.97729492 229.99365234 C21.57147517 234.88032568 20.30403422 239.78111079 19.12060547 244.72631836 C16.39044013 256.1034393 13.15183862 266.76254444 7.1953125 276.93359375 C5.62436306 279.64938543 4.25976314 282.45002177 2.89453125 285.2734375 C2 287 2 287 0 290 C-0.66 290 -1.32 290 -2 290 C-2 290.99 -2 291.98 -2 293 C-2.66 293 -3.32 293 -4 293 C-4.4021875 293.86625 -4.4021875 293.86625 -4.8125 294.75 C-6.02929189 297.05550043 -7.30333879 299.02056192 -9 301 C-9.66 301 -10.32 301 -11 301 C-11.268125 301.804375 -11.53625 302.60875 -11.8125 303.4375 C-12.204375 304.283125 -12.59625 305.12875 -13 306 C-13.99 306.33 -14.98 306.66 -16 307 C-16 307.66 -16 308.32 -16 309 C-24.80083771 316.5547014 -35.87889879 321.88340107 -47 325 C-47.57492188 325.18433594 -48.14984375 325.36867188 -48.7421875 325.55859375 C-62.2869221 328.2066128 -75.02371687 325.3676621 -86.7109375 318.37890625 C-96.53336101 311.68179931 -102.45992965 304.04856578 -105 292.3125 C-106.69050954 281.48884798 -107.13280596 269.72251882 -101.78125 259.72265625 C-97.63682524 254.46153926 -91.91304453 250.81739152 -85.36328125 249.44921875 C-78.52015292 248.9513592 -73.86068914 251.00928829 -68.328125 254.9453125 C-64.27318017 258.52400542 -62.40062416 261.90718149 -61.70703125 267.26171875 C-61.40080995 275.8504972 -63.98179374 281.49186283 -69.44140625 287.984375 C-71.18811127 290.01407371 -71.18811127 290.01407371 -72 293 C-72.66 293 -73.32 293 -74 293 C-74.43337999 297.95979323 -74.73502315 301.73271871 -72.1875 306.125 C-67.45404935 308.90938274 -63.35217273 309.06593061 -58 308 C-54.88419362 306.4131981 -52.49716742 304.4286797 -50 302 C-49.19046875 301.25621094 -48.3809375 300.51242187 -47.546875 299.74609375 C-44.64836774 296.62086276 -42.66678166 293.46765262 -40.625 289.75 C-40.24214844 289.0590625 -39.85929687 288.368125 -39.46484375 287.65625 C-36.70165096 282.55214638 -34.24900881 277.34957252 -32 272 C-31.70947754 271.31905273 -31.41895508 270.63810547 -31.11962891 269.93652344 C-29.23044741 265.25757059 -28.52637403 261.01358235 -28 256 C-27.38671875 253.7421875 -27.38671875 253.7421875 -26.6875 251.875 C-23.7674307 243.60147033 -21.35219948 235.13017589 -19.56640625 226.5390625 C-18.93741195 223.71943287 -18.21335815 220.92828922 -17.48828125 218.13208008 C-15.5611718 210.86613138 -15.5611718 210.86613138 -14.5 203.4375 C-14.12724279 198.92205466 -12.93264332 194.70783201 -11.72265625 190.35131836 C-10.17785311 184.76441729 -8.82063479 179.1437731 -7.5 173.5 C-6.08679632 167.46416245 -4.60676756 161.47008634 -2.9375 155.5 C-1.36398846 149.72627837 -0.19461271 143.94891169 0.875 138.0625 C3.0350425 126.23133363 5.99770212 114.64077766 9 103 C10.09066633 98.75183524 11.17220617 94.5014462 12.25 90.25 C12.4960498 89.29891357 12.74209961 88.34782715 12.99560547 87.36791992 C14.47577425 81.53151941 15.58625768 75.71324546 16.53076172 69.76757812 C17.14387629 66.15141433 18.00377076 62.67242114 18.9375 59.125 C19.28639007 57.75161493 19.63402426 56.37791027 19.98046875 55.00390625 C20.61865454 52.48792355 21.26818533 49.97591676 21.92578125 47.46484375 C23.50047894 40.9645514 24.34169808 34.6709868 24.5 28 C24.54592285 26.94051147 24.54592285 26.94051147 24.59277344 25.85961914 C24.59463452 21.95832796 23.98532274 19.97745232 21.84375 16.6875 C16.66574322 11.79399908 12.11687299 10.54962748 5.125 10.3125 C4.43664062 10.27833984 3.74828125 10.24417969 3.0390625 10.20898438 C1.35991387 10.12735909 -0.32001168 10.0619843 -2 10 C-1.54177532 6.53058454 -1.10868317 3.32604951 0 0 Z " fill="#F835E9" transform="translate(139,60)"/>
<path d="M0 0 C20.29923351 -0.07048615 40.59844173 -0.12318021 60.89777279 -0.15543652 C70.32585206 -0.17082039 79.75385472 -0.19174489 89.18188477 -0.22631836 C97.41177303 -0.25648341 105.64160574 -0.27563636 113.87154776 -0.28226548 C118.21796755 -0.28613252 122.56422861 -0.29503683 126.91059685 -0.31719017 C193.94991811 -0.6450737 193.94991811 -0.6450737 210.5 14.25 C211.2425 15.11625 211.2425 15.11625 212 16 C209.6875 16.25 209.6875 16.25 207 16 C206.54625 15.360625 206.0925 14.72125 205.625 14.0625 C204.04070794 11.59458849 204.04070794 11.59458849 200.3125 11.25 C199.219375 11.1675 198.12625 11.085 197 11 C197 10.34 197 9.68 197 9 C195.02 9 193.04 9 191 9 C191 8.34 191 7.68 191 7 C185.50527412 6.12583907 180.02682792 5.66687638 174.4765625 5.28125 C172 5 172 5 171 4 C161.04787776 2.80305366 151.00575635 2.86045584 140.99853516 2.88647461 C139.44969179 2.88675749 137.90084829 2.88659678 136.352005 2.8860321 C132.19386369 2.88574806 128.03575189 2.8915806 123.87761736 2.89860606 C119.51479783 2.90490566 115.15197743 2.90544858 110.78915405 2.90663147 C102.54831826 2.90972546 94.30749591 2.91791252 86.06666601 2.92798096 C76.67595355 2.93920246 67.28524041 2.94466769 57.89452291 2.94967639 C38.59634101 2.96009698 19.29817159 2.97765859 0 3 C0 2.01 0 1.02 0 0 Z " fill="#A8379E" transform="translate(276,62)"/>
<path d="M0 0 C1.31535736 -0.00137466 2.63071472 -0.00274933 3.9859314 -0.00416565 C5.45211815 -0.00062625 6.91830467 0.00300856 8.38449097 0.00672913 C9.92171222 0.00701107 11.45893361 0.00685313 12.99615479 0.00628662 C17.1777329 0.00599891 21.35928251 0.01189138 25.54085398 0.01886058 C29.90774804 0.02509851 34.2746427 0.02569826 38.64154053 0.02688599 C46.91465021 0.029998 55.18774672 0.03820965 63.4608506 0.04823548 C72.8778865 0.05940063 82.29492302 0.06490808 91.71196389 0.06993091 C111.08702596 0.08039236 130.46207577 0.0979893 149.83712769 0.12025452 C149.83712769 0.45025452 149.83712769 0.78025452 149.83712769 1.12025452 C149.05045023 1.12264287 148.26377277 1.12503122 147.45325661 1.12749195 C128.33360944 1.18656395 109.21409222 1.26206363 90.09458351 1.35596943 C80.84862022 1.40098274 71.60269593 1.44038449 62.35665894 1.46669006 C54.30014817 1.48962547 46.24376024 1.52297316 38.18734682 1.56895608 C33.9194005 1.59294875 29.65157628 1.61163776 25.383564 1.61786842 C21.36982124 1.62389214 17.35639117 1.64379253 13.3427639 1.67453003 C11.86652353 1.68335407 10.39024236 1.68702387 8.91397667 1.68526268 C6.90465155 1.68362181 4.8953393 1.70200013 2.8861084 1.7215271 C1.19646186 1.72844055 1.19646186 1.72844055 -0.52731895 1.73549366 C-1.39705156 1.86246474 -2.26678417 1.98943583 -3.16287231 2.12025452 C-5.60106168 5.77753856 -5.83454151 9.05313347 -6.28787231 13.30775452 C-6.3742395 14.05734436 -6.46060669 14.8069342 -6.54959106 15.57923889 C-6.76125613 17.42542864 -6.96302696 19.27274795 -7.16287231 21.12025452 C-7.82287231 21.12025452 -8.48287231 21.12025452 -9.16287231 21.12025452 C-9.37943481 22.82181702 -9.37943481 22.82181702 -9.60037231 24.55775452 C-10.16287231 28.12025452 -10.16287231 28.12025452 -11.16287231 29.12025452 C-11.39480096 30.634949 -11.5750247 32.15780013 -11.72537231 33.68275452 C-11.80916138 34.50904358 -11.89295044 35.33533264 -11.97927856 36.18666077 C-12.0398645 36.8247467 -12.10045044 37.46283264 -12.16287231 38.12025452 C-12.82287231 38.12025452 -13.48287231 38.12025452 -14.16287231 38.12025452 C-14.13966919 38.77252014 -14.11646606 39.42478577 -14.09255981 40.09681702 C-13.98703478 45.20724355 -14.1436093 49.32450485 -16.16287231 54.12025452 C-16.82287231 54.12025452 -17.48287231 54.12025452 -18.16287231 54.12025452 C-18.16287231 57.09025452 -18.16287231 60.06025452 -18.16287231 63.12025452 C-20.40631801 59.75508597 -20.35615188 59.08312231 -19.91287231 55.24525452 C-19.82521606 54.40220764 -19.73755981 53.55916077 -19.64724731 52.69056702 C-19.16287231 50.12025452 -19.16287231 50.12025452 -18.23709106 47.90150452 C-16.68084158 43.87223313 -16.01651115 39.73181477 -15.22537231 35.49525452 C-14.00446662 29.14278302 -12.64155922 22.93529001 -10.81521606 16.72572327 C-9.74058701 12.43364194 -9.23211729 8.06176144 -8.69021606 3.67494202 C-8.51619263 2.83189514 -8.34216919 1.98884827 -8.16287231 1.12025452 C-5.37920551 -0.27157889 -3.11580044 -0.00250064 0 0 Z " fill="#F040E3" transform="translate(283.1628723144531,63.87974548339844)"/>
<path d="M0 0 C34.98 0 69.96 0 106 0 C105.34 2.97 104.68 5.94 104 9 C103.67 9 103.34 9 103 9 C103 6.69 103 4.38 103 2 C90.0133779 2.10741853 77.02681237 2.22003503 64.04029369 2.33933926 C58.0105238 2.39456894 51.98074905 2.44798909 45.95092773 2.49731445 C40.1348523 2.54495722 34.31883664 2.59730012 28.50283241 2.65294075 C26.28083084 2.67336468 24.05881289 2.69207769 21.83678246 2.70907402 C18.73121577 2.73311707 15.62576234 2.76317196 12.52026367 2.79467773 C11.59597565 2.8004332 10.67168762 2.80618866 9.71939087 2.81211853 C8.87385147 2.82190735 8.02831207 2.83169617 7.15715027 2.84178162 C6.42248126 2.84823417 5.68781225 2.85468672 4.93088055 2.8613348 C2.78039283 2.93572391 2.78039283 2.93572391 0 4 C0 5.32 0 6.64 0 8 C0.495 7.835 0.99 7.67 1.5 7.5 C5.03444089 6.79311182 8.39690701 6.93994845 12 7 C12 7.66 12 8.32 12 9 C13.65 9.33 15.3 9.66 17 10 C17 10.66 17 11.32 17 12 C16.49984375 11.84660156 15.9996875 11.69320312 15.484375 11.53515625 C12.09672234 10.80542604 8.70038481 10.63643523 5.25 10.4375 C4.55261719 10.39431641 3.85523438 10.35113281 3.13671875 10.30664062 C1.42468078 10.20110404 -0.28763561 10.1001009 -2 10 C-1.54177532 6.53058454 -1.10868317 3.32604951 0 0 Z " fill="#EB47DC" transform="translate(139,60)"/>
<path d="M0 0 C0.66 0 1.32 0 2 0 C1.78732215 10.94324209 -0.88523288 20.58856518 -4 31 C-22.00991626 32.0692447 -39.90613384 31.94928785 -57.9375 31.5625 C-60.67510248 31.50829488 -63.41274503 31.45627245 -66.15039062 31.40429688 C-72.76709359 31.27704718 -79.38359408 31.14181921 -86 31 C-85.85132966 29.57275765 -85.69981396 28.14581153 -85.54711914 26.71899414 C-85.42102013 25.52700157 -85.42102013 25.52700157 -85.29237366 24.31092834 C-84.9091759 21.28212414 -84.21727947 18.38710059 -83.4375 15.4375 C-83.03337891 13.88869141 -83.03337891 13.88869141 -82.62109375 12.30859375 C-82.41613281 11.54675781 -82.21117187 10.78492188 -82 10 C-81.67 10 -81.34 10 -81 10 C-81.33 16.27 -81.66 22.54 -82 29 C-56.92 29 -31.84 29 -6 29 C-5.34 24.38 -4.68 19.76 -4 15 C-3.01 13.35 -2.02 11.7 -1 10 C-0.43575519 7.34466947 -0.43575519 7.34466947 -0.3125 4.6875 C-0.24675781 3.80449219 -0.18101562 2.92148437 -0.11328125 2.01171875 C-0.07589844 1.34785156 -0.03851563 0.68398438 0 0 Z " fill="#922C8A" transform="translate(289,358)"/>
<path d="M0 0 C0.99 0 1.98 0 3 0 C3 0.66 3 1.32 3 2 C28.08 2 53.16 2 79 2 C78.34 2.33 77.68 2.66 77 3 C77 3.66 77 4.32 77 5 C51.92 5 26.84 5 1 5 C0.67 3.35 0.34 1.7 0 0 Z " fill="#BC34B2" transform="translate(323,208)"/>
<path d="M0 0 C0.33 0 0.66 0 1 0 C1.061875 1.051875 1.12375 2.10375 1.1875 3.1875 C2.17404642 7.81667934 3.15048267 9.27325856 7 12 C10.00174266 12.67878603 12.92745203 12.92636595 16 13 C16 13.66 16 14.32 16 15 C12.37 15 8.74 15 5 15 C4.67 16.65 4.34 18.3 4 20 C4.66 20.66 5.32 21.32 6 22 C6 23.32 6 24.64 6 26 C8.40059817 27.20029908 9.89360649 27.11459743 12.5703125 27.09765625 C13.91416016 27.09282227 13.91416016 27.09282227 15.28515625 27.08789062 C16.22230469 27.07951172 17.15945312 27.07113281 18.125 27.0625 C19.54232422 27.05573242 19.54232422 27.05573242 20.98828125 27.04882812 C23.32558387 27.03702357 25.66276061 27.02055759 28 27 C28 26.34 28 25.68 28 25 C31.40351338 22.96780512 34.3232927 22.63108961 38.25 22.375 C39.32765625 22.30023438 40.4053125 22.22546875 41.515625 22.1484375 C42.33546875 22.09945313 43.1553125 22.05046875 44 22 C38.20330483 28.23057954 29.19074371 29.84949053 20.99609375 30.2265625 C10.42478789 30.51899796 1.31043968 29.49077212 -8 24 C-8.33 23.34 -8.66 22.68 -9 22 C-6.36 22.33 -3.72 22.66 -1 23 C-1.99 21.68 -2.98 20.36 -4 19 C-1.69 17.68 0.62 16.36 3 15 C2.65213292 13.02463255 2.65213292 13.02463255 2 11 C1.34 10.67 0.68 10.34 0 10 C0 6.7 0 3.4 0 0 Z " fill="#F43AE6" transform="translate(63,356)"/>
<path d="M0 0 C3.0784706 4.6177059 4 6.23388893 4 12 C-25.7 12 -55.4 12 -86 12 C-86.33 10.02 -86.66 8.04 -87 6 C-86.01 6.495 -86.01 6.495 -85 7 C-85 7.99 -85 8.98 -85 10 C-56.62 10 -28.24 10 1 10 C0.67 6.7 0.34 3.4 0 0 Z " fill="#8A2882" transform="translate(495,377)"/>
<path d="M0 0 C1.1055189 0.93590504 2.20935453 1.87379858 3.3125 2.8125 C3.92738281 3.33457031 4.54226563 3.85664062 5.17578125 4.39453125 C8.51952278 7.3373102 8.51952278 7.3373102 10 9 C10 9.66 10 10.32 10 11 C10.61351318 11.25434814 11.22702637 11.50869629 11.85913086 11.77075195 C14.31244491 13.17940017 14.97816803 14.18023347 16.25390625 16.66796875 C16.63353516 17.39693359 17.01316406 18.12589844 17.40429688 18.87695312 C17.78650391 19.63943359 18.16871094 20.40191406 18.5625 21.1875 C18.94857422 21.93064453 19.33464844 22.67378906 19.73242188 23.43945312 C29.98121298 43.36086821 33.05889263 65.82302842 30 88 C29.67 88 29.34 88 29 88 C28.97494385 87.27522461 28.9498877 86.55044922 28.92407227 85.80371094 C28.80651383 82.45236255 28.68452697 79.10118854 28.5625 75.75 C28.52318359 74.61046875 28.48386719 73.4709375 28.44335938 72.296875 C28.16800232 64.8410532 27.69021742 57.42894137 27 50 C26.34 50 25.68 50 25 50 C24.90203125 49.09636719 24.8040625 48.19273437 24.703125 47.26171875 C24.55359375 46.08222656 24.4040625 44.90273437 24.25 43.6875 C24.11078125 42.51574219 23.9715625 41.34398437 23.828125 40.13671875 C22.87859018 36.54013168 22.00117332 35.97028248 19 34 C19 32 19 30 19 28 C17.69254251 26.31295807 16.35827971 24.64639965 15 23 C14.835 21.948125 14.67 20.89625 14.5 19.8125 C14.335 18.884375 14.17 17.95625 14 17 C12.20067421 15.93283296 12.20067421 15.93283296 10 15 C8.11113848 13.11113848 6.6127771 11.15036947 5 9 C5 8.34 5 7.68 5 7 C3.68 6.67 2.36 6.34 1 6 C0.67 4.02 0.34 2.04 0 0 Z " fill="#972D8F" transform="translate(498,84)"/>
<path d="M0 0 C14.85 0.33 29.7 0.66 45 1 C45 1.66 45 2.32 45 3 C47.64 3 50.28 3 53 3 C53.495 6.96 53.495 6.96 54 11 C51 7.375 51 7.375 51 4 C23.775 4.495 23.775 4.495 -4 5 C-4.66 6.98 -5.32 8.96 -6 11 C-6.98120464 7.94736336 -6.98120464 6.05263664 -6 3 C-4.35 3 -2.7 3 -1 3 C-0.67 2.01 -0.34 1.02 0 0 Z " fill="#D338C6" transform="translate(316,268)"/>
<path d="M0 0 C8.44037418 -0.06942772 16.8806296 -0.12277414 25.32121849 -0.15543652 C29.24028972 -0.17111071 33.15916599 -0.19238048 37.078125 -0.22631836 C40.85824125 -0.25885001 44.63816967 -0.2768398 48.41841507 -0.28463173 C49.86257511 -0.29018645 51.30672456 -0.30103321 52.7508049 -0.31719017 C54.76915257 -0.33887964 56.78768817 -0.34022467 58.80615234 -0.34057617 C59.95642914 -0.34723801 61.10670593 -0.35389984 62.2918396 -0.36076355 C63.18553253 -0.24171158 64.07922546 -0.12265961 65 0 C65.99 1.485 65.99 1.485 67 3 C45.55 3.33 24.1 3.66 2 4 C-1.35859862 16.44464972 -1.35859862 16.44464972 -4 29 C-4.33 29 -4.66 29 -5 29 C-5 24.38 -5 19.76 -5 15 C-4.34 15 -3.68 15 -3 15 C-2.85691406 14.28457031 -2.71382813 13.56914062 -2.56640625 12.83203125 C-1.7109375 8.5546875 -0.85546875 4.27734375 0 0 Z " fill="#792270" transform="translate(344,121)"/>
<path d="M0 0 C0.33 0 0.66 0 1 0 C0.67 6.93 0.34 13.86 0 21 C-0.66 21 -1.32 21 -2 21 C-2 22.98 -2 24.96 -2 27 C-2.66 27 -3.32 27 -4 27 C-3.938125 28.9490625 -3.938125 28.9490625 -3.875 30.9375 C-3.88490922 37.25958098 -5.07941823 42.94397056 -7.5625 48.75 C-9.74167656 54.21453412 -9.96694639 60.16603861 -10 66 C-9.67 66.66 -9.34 67.32 -9 68 C-11 70 -11 70 -14 72 C-14.57993699 74.19454681 -14.57993699 74.19454681 -14.6875 76.625 C-14.75324219 77.44226563 -14.81898438 78.25953125 -14.88671875 79.1015625 C-14.92410156 79.72804688 -14.96148437 80.35453125 -15 81 C-15.66 81 -16.32 81 -17 81 C-16.46328442 72.47274319 -14.67072932 64.3066509 -12.75 56 C-12.43246383 54.60556652 -12.11500025 53.21111651 -11.79760742 51.81665039 C-9.99211966 43.94617299 -8.00025365 36.15806755 -5.71508789 28.41259766 C-3.05287558 19.11438864 -1.58205513 9.52990293 0 0 Z " fill="#B334A7" transform="translate(231,260)"/>
<path d="M0 0 C0.33 0 0.66 0 1 0 C1 4.95 1 9.9 1 15 C0.34 15 -0.32 15 -1 15 C-1.66 20.61 -2.32 26.22 -3 32 C-3.66 32 -4.32 32 -5 32 C-4.938125 32.99 -4.87625 33.98 -4.8125 35 C-4.80534193 38.59335237 -5.81835707 41.29480633 -7.20703125 44.61328125 C-8.55853517 48.68110832 -8.95052867 52.90286621 -9.47265625 57.14453125 C-10 60 -10 60 -12 63 C-13.6103379 68.24149199 -14.25536947 73.59665053 -14.55859375 79.0546875 C-15.10833641 81.4774472 -16.1335999 82.41729271 -18 84 C-17.70439583 76.06302808 -16.33208701 68.88508997 -14.171875 61.25390625 C-12.79718179 56.37141537 -11.65285486 51.4387186 -10.5 46.5 C-9.08715645 40.46408709 -7.60676304 34.47007015 -5.9375 28.5 C-3.37658571 19.12391789 -1.71836277 9.56011958 0 0 Z " fill="#A8329C" transform="translate(142,187)"/>
<path d="M0 0 C8.58 0 17.16 0 26 0 C26 2.64 26 5.28 26 8 C25.25234375 8.04898438 24.5046875 8.09796875 23.734375 8.1484375 C22.25710937 8.26058594 22.25710937 8.26058594 20.75 8.375 C19.77546875 8.44460937 18.8009375 8.51421875 17.796875 8.5859375 C15.06634573 8.99017787 13.42366635 9.76813652 11 11 C9.68 11 8.36 11 7 11 C7 11.66 7 12.32 7 13 C5.02 13.99 3.04 14.98 1 16 C1 15.01 1 14.02 1 13 C3.19149626 10.88967027 4.60628398 10.06561934 7.625 9.5625 C10.17808944 9.24928429 10.17808944 9.24928429 11.3125 6.9375 C11.539375 6.298125 11.76625 5.65875 12 5 C10.68 4.67 9.36 4.34 8 4 C8 3.01 8 2.02 8 1 C5.36 1 2.72 1 0 1 C0 0.67 0 0.34 0 0 Z " fill="#F439E6" transform="translate(216,62)"/>
<path d="M0 0 C0.66 0 1.32 0 2 0 C2.11044961 6.73742646 1.70132913 13.29980211 1 20 C0.34 20 -0.32 20 -1 20 C-1.2165625 21.7015625 -1.2165625 21.7015625 -1.4375 23.4375 C-2 27 -2 27 -3 28 C-3.23192865 29.51469448 -3.41215238 31.03754562 -3.5625 32.5625 C-3.64628906 33.38878906 -3.73007812 34.21507812 -3.81640625 35.06640625 C-3.87699219 35.70449219 -3.93757813 36.34257813 -4 37 C-4.66 37 -5.32 37 -6 37 C-5.97679687 37.65226562 -5.95359375 38.30453125 -5.9296875 38.9765625 C-5.82416247 44.08698903 -5.98073698 48.20425033 -8 53 C-8.66 53 -9.32 53 -10 53 C-10 55.97 -10 58.94 -10 62 C-12.2434457 58.63483145 -12.19327956 57.9628678 -11.75 54.125 C-11.66234375 53.28195313 -11.5746875 52.43890625 -11.484375 51.5703125 C-11 49 -11 49 -10.07421875 46.78125 C-8.51796927 42.75197862 -7.85363884 38.61156026 -7.0625 34.375 C-6.00607725 28.87834663 -4.94461663 23.44062803 -3.375 18.0625 C-1.64926372 12.14030117 -0.82476139 6.10323432 0 0 Z " fill="#BF3BB3" transform="translate(275,65)"/>
<path d="M0 0 C0.33 0 0.66 0 1 0 C1 4.95 1 9.9 1 15 C1.66 14.67 2.32 14.34 3 14 C4.22119816 19.37327189 4.22119816 19.37327189 3.25 22.125 C2.8375 22.74375 2.425 23.3625 2 24 C1.505 24.7425 1.01 25.485 0.5 26.25 C0.005 26.8275 -0.49 27.405 -1 28 C-1.66 28 -2.32 28 -3 28 C-3.12375 28.7425 -3.2475 29.485 -3.375 30.25 C-4 33 -4 33 -4.96875 34.78125 C-6.26802803 37.57666636 -6.66192611 40.20694302 -7.125 43.25 C-7.29257813 44.32765625 -7.46015625 45.4053125 -7.6328125 46.515625 C-7.75398437 47.33546875 -7.87515625 48.1553125 -8 49 C-8.66 49 -9.32 49 -10 49 C-9.2857831 43.17516439 -8.01895988 37.57180722 -6.625 31.875 C-6.17427147 30.00395627 -5.72375022 28.1328626 -5.2734375 26.26171875 C-4.84913064 24.50777081 -4.42466536 22.75386118 -4 21 C-2.3107133 14.01836864 -0.7018773 7.15914845 0 0 Z " fill="#BB31AF" transform="translate(244,202)"/>
<path d="M0 0 C0.66 0 1.32 0 2 0 C2 0.99 2 1.98 2 3 C2.66 3 3.32 3 4 3 C4.05865035 6.18742115 4.09381259 9.37470118 4.125 12.5625 C4.14175781 13.45775391 4.15851563 14.35300781 4.17578125 15.27539062 C4.2149214 20.61802169 3.75497743 24.94956496 2 30 C1.67 30.99 1.34 31.98 1 33 C0.01 33.495 0.01 33.495 -1 34 C-1.144375 34.78375 -1.28875 35.5675 -1.4375 36.375 C-2 39 -2 39 -3.3984375 40.33984375 C-5.42245753 42.4379133 -6.16368688 44.46909965 -7.1875 47.1875 C-7.53167969 48.08855469 -7.87585938 48.98960937 -8.23046875 49.91796875 C-8.48441406 50.60503906 -8.73835938 51.29210937 -9 52 C-10.65 52 -12.3 52 -14 52 C-13.67 51.01 -13.34 50.02 -13 49 C-12.34 49 -11.68 49 -11 49 C-11 48.34 -11 47.68 -11 47 C-10.34 47 -9.68 47 -9 47 C-8.731875 46.12730469 -8.46375 45.25460938 -8.1875 44.35546875 C-7.04197607 41.11861 -5.6419964 38.3214584 -4 35.3125 C1.75226492 23.96229922 1.83138203 12.36182871 0 0 Z " fill="#A7349B" transform="translate(445,146)"/>
<path d="M0 0 C9.33581791 -0.02315408 18.67162597 -0.04093076 28.00746632 -0.05181217 C32.34230881 -0.05703427 36.67713169 -0.06411976 41.01196289 -0.07543945 C45.19406515 -0.08629217 49.37614852 -0.09228192 53.55826378 -0.09487724 C55.15508001 -0.09672718 56.75189518 -0.10033955 58.34870338 -0.10573006 C60.58250806 -0.1129721 62.81623433 -0.1139896 65.05004883 -0.11352539 C66.95866447 -0.11685631 66.95866447 -0.11685631 68.90583801 -0.12025452 C72 0 72 0 75 1 C76.89470816 1.0685495 78.7916834 1.08480372 80.6875 1.0625 C81.68136719 1.05347656 82.67523438 1.04445313 83.69921875 1.03515625 C84.45847656 1.02355469 85.21773438 1.01195313 86 1 C86.495 2.485 86.495 2.485 87 4 C87.99 4.99 87.99 4.99 89 6 C87.25 6.625 87.25 6.625 85 7 C84.43293839 6.71059036 83.86587677 6.42118073 83.28163147 6.1230011 C73.37991594 1.24945444 60.86959174 1.53630256 50.09765625 1.48828125 C48.63934377 1.47137628 47.18104534 1.45321859 45.72276306 1.43388367 C41.94019979 1.38700714 38.15769341 1.35679939 34.37493896 1.33044434 C30.49268342 1.30031835 26.61062323 1.25390105 22.72851562 1.20898438 C15.15244207 1.12366381 7.57635312 1.05600789 0 1 C0 0.67 0 0.34 0 0 Z " fill="#CE62C7" transform="translate(345,122)"/>
<path d="M0 0 C34.98 0 69.96 0 106 0 C105.34 2.97 104.68 5.94 104 9 C103.67 9 103.34 9 103 9 C103 6.36 103 3.72 103 1 C69.01 1 35.02 1 0 1 C0 0.67 0 0.34 0 0 Z " fill="#9A2990" transform="translate(139,60)"/>
<path d="M0 0 C0.33 0 0.66 0 1 0 C1.56002438 7.09364217 -0.50407855 13.4567733 -2.375 20.25 C-4.61192501 28.46115158 -6.64439728 36.59312831 -8 45 C-8.33 45 -8.66 45 -9 45 C-9.02725341 43.2709226 -9.04650987 41.54171824 -9.0625 39.8125 C-9.07410156 38.84957031 -9.08570313 37.88664062 -9.09765625 36.89453125 C-9 34 -9 34 -8.5 31.53125 C-7.90795327 28.53401344 -7.90395591 25.74001247 -7.9375 22.6875 C-7.94652344 21.61886719 -7.95554688 20.55023438 -7.96484375 19.44921875 C-7.97644531 18.64097656 -7.98804688 17.83273438 -8 17 C-6.68 16.67 -5.36 16.34 -4 16 C-3.95101562 15.30132812 -3.90203125 14.60265625 -3.8515625 13.8828125 C-3.73941406 12.51769531 -3.73941406 12.51769531 -3.625 11.125 C-3.55539063 10.22007812 -3.48578125 9.31515625 -3.4140625 8.3828125 C-3 6 -3 6 -1 4 C-0.3574765 1.93125966 -0.3574765 1.93125966 0 0 Z " fill="#C139B7" transform="translate(194,143)"/>
<path d="M0 0 C19.14818007 -0.72615619 39.1926022 0.70535727 55 13 C55 13.33 55 13.66 55 14 C52.6875 14.25 52.6875 14.25 50 14 C49.54625 13.360625 49.0925 12.72125 48.625 12.0625 C47.04070794 9.59458849 47.04070794 9.59458849 43.3125 9.25 C42.219375 9.1675 41.12625 9.085 40 9 C40 8.34 40 7.68 40 7 C38.02 7 36.04 7 34 7 C34 6.34 34 5.68 34 5 C28.50527412 4.12583907 23.02682792 3.66687638 17.4765625 3.28125 C15 3 15 3 14 2 C11.65012738 1.76472227 9.29443961 1.58613583 6.9375 1.4375 C5.64714844 1.35371094 4.35679687 1.26992187 3.02734375 1.18359375 C1.52880859 1.09271484 1.52880859 1.09271484 0 1 C0 0.67 0 0.34 0 0 Z " fill="#BC3CB2" transform="translate(433,64)"/>
<path d="M0 0 C0.66 0.33 1.32 0.66 2 1 C2 2.32 2 3.64 2 5 C2.99 5.33 3.98 5.66 5 6 C5.6875 8.0625 5.6875 8.0625 6 10 C3.69 11.32 1.38 12.64 -1 14 C0.32 15.32 1.64 16.64 3 18 C-1.05431692 19.15837626 -3.21812119 18.83691257 -7 17 C-5.87548273 14.0280615 -4.77706209 11.66559313 -3 9 C-4.32 9 -5.64 9 -7 9 C-6.67 8.01 -6.34 7.02 -6 6 C-3.69 6 -1.38 6 1 6 C0.67 4.02 0.34 2.04 0 0 Z " fill="#F836EA" transform="translate(61,361)"/>
<path d="M0 0 C-9.38278227 5.13212725 -16.941692 7.1433907 -27.5625 7.25 C-28.27092041 7.25942627 -28.97934082 7.26885254 -29.70922852 7.27856445 C-34.76028922 7.24754763 -39.14022312 6.37757455 -44 5 C-44 4.67 -44 4.34 -44 4 C-34.76 4 -25.52 4 -16 4 C-16 3.34 -16 2.68 -16 2 C-12.92952329 0.25054234 -10.38478525 -0.36795239 -6.875 -0.6875 C-5.57175781 -0.81705078 -5.57175781 -0.81705078 -4.2421875 -0.94921875 C-2 -1 -2 -1 0 0 Z " fill="#992D8F" transform="translate(107,379)"/>
<path d="M0 0 C2.71265757 2.71265757 3.55416942 5.89509645 4.8125 9.4375 C6.94767466 15.31317948 9.30511791 20.98689891 11.96484375 26.6484375 C13.31573692 29.71725897 14.20482238 32.74700066 15 36 C13.68 35.34 12.36 34.68 11 34 C11 32.35 11 30.7 11 29 C10.34 29 9.68 29 9 29 C8.67 29.66 8.34 30.32 8 31 C6.82428549 27.32589215 6.92633254 23.83070817 7 20 C4.525 19.01 4.525 19.01 2 18 C2 17.01 2 16.02 2 15 C1.56215842 12.43549931 1.16551796 10.33103593 0 8 C-0.13415472 5.3276379 -0.04318541 2.67749512 0 0 Z " fill="#BA35B0" transform="translate(480,341)"/>
<path d="M0 0 C0.33 0 0.66 0 1 0 C1 5.61 1 11.22 1 17 C0.34 17 -0.32 17 -1 17 C-1.12117188 17.556875 -1.24234375 18.11375 -1.3671875 18.6875 C-1.90288463 21.12698231 -2.45057302 23.56357551 -3 26 C-3.15597656 26.71542969 -3.31195313 27.43085938 -3.47265625 28.16796875 C-4.4623763 32.46784491 -5.87519075 36.13671046 -8 40 C-9.52853643 36.05696016 -8.41176703 33.24486299 -7.1875 29.3125 C-5.79358421 24.68202633 -4.49833484 20.10525493 -3.50390625 15.375 C-2.83443444 12.21965998 -2.10301521 9.07981681 -1.375 5.9375 C-1.11460938 4.81214844 -0.85421875 3.68679688 -0.5859375 2.52734375 C-0.39257812 1.69332031 -0.19921875 0.85929687 0 0 Z " fill="#B438A9" transform="translate(123,271)"/>
<path d="M0 0 C1.12472912 3.36738259 0.85486255 5.5284095 -0.0390625 8.9375 C-0.28769043 9.90623047 -0.53631836 10.87496094 -0.79248047 11.87304688 C-1.06721191 12.90494141 -1.34194336 13.93683594 -1.625 15 C-2.18244786 17.15620963 -2.73973673 19.31246036 -3.296875 21.46875 C-3.58111328 22.55542969 -3.86535156 23.64210938 -4.15820312 24.76171875 C-5.43297377 29.66559284 -6.65374498 34.58258112 -7.875 39.5 C-8.28877035 41.15632301 -8.70280295 42.81258055 -9.1171875 44.46875 C-9.55417969 46.21671875 -9.55417969 46.21671875 -10 48 C-10.33 48 -10.66 48 -11 48 C-10.90912109 47.10861328 -10.90912109 47.10861328 -10.81640625 46.19921875 C-10.16982122 39.80300071 -9.57215654 33.40328386 -9 27 C-8.01 27 -7.02 27 -6 27 C-5.96261719 26.20078125 -5.92523438 25.4015625 -5.88671875 24.578125 C-4.69662921 4.69662921 -4.69662921 4.69662921 0 0 Z " fill="#A5339B" transform="translate(166,266)"/>
<path d="M0 0 C0.33 0 0.66 0 1 0 C-0.34398654 19.01597981 -0.34398654 19.01597981 -3 23 C-4.6103379 28.24149199 -5.25536947 33.59665053 -5.55859375 39.0546875 C-6.10833641 41.4774472 -7.1335999 42.41729271 -9 44 C-8.70180975 35.99359187 -7.30147177 28.74608529 -5.12109375 21.046875 C-3.85887022 16.58413218 -2.79794914 12.07962011 -1.75 7.5625 C-1.5749292 6.81009033 -1.3998584 6.05768066 -1.21948242 5.2824707 C-0.81108973 3.5220865 -0.40524941 1.76111046 0 0 Z " fill="#A6339C" transform="translate(133,227)"/>
<path d="M0 0 C0.33 0 0.66 0 1 0 C1.98358425 14.01607559 -3.5178883 25.98327784 -10 38 C-11.00641389 39.99678018 -12.00844765 41.99579843 -13 44 C-13.33 42.68 -13.66 41.36 -14 40 C-13.34 40 -12.68 40 -12 40 C-12 38.68 -12 37.36 -12 36 C-11.34 36 -10.68 36 -10 36 C-9.67 33.36 -9.34 30.72 -9 28 C-8.01 28 -7.02 28 -6 28 C-6.04125 26.72125 -6.0825 25.4425 -6.125 24.125 C-6.1953125 21.9453125 -6.1953125 21.9453125 -6 20 C-5.34 19.34 -4.68 18.68 -4 18 C-1.97447699 12.15602691 -0.68215211 6.13936902 0 0 Z " fill="#902D87" transform="translate(526,172)"/>
<path d="M0 0 C1.03595644 3.10786933 0.7858805 4.63858376 0.24609375 7.77734375 C-0.05992809 10.54125529 0.04500722 13.22112033 0.125 16 C0.16932493 21.09103508 -0.62530494 24.42651323 -3 29 C-3.58050912 30.47219205 -4.1429419 31.95163434 -4.6875 33.4375 C-5.120625 34.613125 -5.55375 35.78875 -6 37 C-7.44074309 33.09221427 -6.61394167 29.91053188 -5.8203125 25.8984375 C-5.68809296 25.22076324 -5.55587341 24.54308899 -5.41964722 23.84487915 C-5.13940232 22.4169529 -4.85506201 20.98982508 -4.56689453 19.56347656 C-4.12546982 17.37732676 -3.69643096 15.18902776 -3.26953125 13 C-1.16217169 2.32434338 -1.16217169 2.32434338 0 0 Z " fill="#A7349F" transform="translate(262,124)"/>
<path d="M0 0 C1.30076135 3.90228404 0.3031487 5.0905539 -1 9 C-1.33738412 10.89156344 -1.64718378 12.78814306 -1.9375 14.6875 C-4.26747751 29.40121627 -4.26747751 29.40121627 -8 35 C-8.02698189 33.37509046 -8.04638757 31.75005367 -8.0625 30.125 C-8.07410156 29.22007812 -8.08570313 28.31515625 -8.09765625 27.3828125 C-8 25 -8 25 -7 23 C-7.66 23 -8.32 23 -9 23 C-8.42655063 20.13275314 -8.1385485 19.1385485 -6 17 C-5.01 17 -4.02 17 -3 17 C-3.03480469 16.443125 -3.06960937 15.88625 -3.10546875 15.3125 C-3.313323 9.45298962 -2.34325807 5.3699664 0 0 Z " fill="#AF30A7" transform="translate(203,108)"/>
<path d="M0 0 C2 2 2 2 2 5 C2.66 5.33 3.32 5.66 4 6 C4.72693904 7.97888961 5.39816251 9.97954558 6 12 C7.32 11.67 8.64 11.34 10 11 C10 12.65 10 14.3 10 16 C11.65 16.33 13.3 16.66 15 17 C15.33 17.99 15.66 18.98 16 20 C16.99 20 17.98 20 19 20 C18.67 20.99 18.34 21.98 18 23 C11.76171872 20.12079326 7.42561302 16.83622821 3.625 11.0625 C2.93664063 10.04285156 2.24828125 9.02320313 1.5390625 7.97265625 C-0.02781386 4.9462783 -0.35681863 3.34056059 0 0 Z " fill="#AF35A2" transform="translate(36,355)"/>
<path d="M0 0 C0.66 0 1.32 0 2 0 C2.11044961 6.73742646 1.70132913 13.29980211 1 20 C0.34 20 -0.32 20 -1 20 C-1.12375 21.134375 -1.2475 22.26875 -1.375 23.4375 C-1.58125 24.613125 -1.7875 25.78875 -2 27 C-2.66 27.33 -3.32 27.66 -4 28 C-3.59995038 21.1886289 -3.11687763 14.58001997 -1.4765625 7.9453125 C-0.83347623 5.32025542 -0.41075228 2.66988983 0 0 Z " fill="#D541C8" transform="translate(275,65)"/>
<path d="M0 0 C0.66 0 1.32 0 2 0 C1.67716575 9.57203551 0.4809368 19.0215837 -3 28 C-3.99 28.33 -4.98 28.66 -6 29 C-5.74340689 26.76914933 -5.46912686 24.54032877 -5.1875 22.3125 C-5.03667969 21.07113281 -4.88585937 19.82976562 -4.73046875 18.55078125 C-4.00210312 15.01022321 -2.87274324 13.02826566 -1 10 C-0.43575519 7.34466947 -0.43575519 7.34466947 -0.3125 4.6875 C-0.24675781 3.80449219 -0.18101562 2.92148437 -0.11328125 2.01171875 C-0.07589844 1.34785156 -0.03851563 0.68398438 0 0 Z " fill="#B637AB" transform="translate(289,358)"/>
<path d="M0 0 C0.33 0 0.66 0 1 0 C1 2.64 1 5.28 1 8 C1.66 8.33 2.32 8.66 3 9 C2.34 9.66 1.68 10.32 1 11 C0.1233433 14.61620887 -0.5355559 18.25284001 -1.21875 21.91015625 C-1.4765625 22.92980469 -1.734375 23.94945312 -2 25 C-2.66 25.33 -3.32 25.66 -4 26 C-5.13350534 28.01669827 -5.13350534 28.01669827 -6 30 C-5.38627074 23.12199963 -4.10103248 16.6335677 -2.4375 9.9375 C-2.20353516 8.97650391 -1.96957031 8.01550781 -1.72851562 7.02539062 C-1.15732057 4.68232518 -0.58107577 2.34063082 0 0 Z " fill="#BF38B3" transform="translate(153,142)"/>
<path d="M0 0 C0.66 0 1.32 0 2 0 C1.35343144 8.89031769 -0.87022567 17.37193748 -3 26 C-3.33 26 -3.66 26 -4 26 C-4.33 23.03 -4.66 20.06 -5 17 C-4.67 17 -4.34 17 -4 17 C-4 13.7 -4 10.4 -4 7 C-3.34 7 -2.68 7 -2 7 C-1.34 4.69 -0.68 2.38 0 0 Z " fill="#BD35B0" transform="translate(182,192)"/>
<path d="M0 0 C0.66 0 1.32 0 2 0 C2 0.99 2 1.98 2 3 C2.66 3 3.32 3 4 3 C5.59138085 7.17737474 6.21278058 10.53160785 6 15 C6.66 15 7.32 15 8 15 C10.20399168 19.55491614 10.58846263 24.02906176 11 29 C8.24668194 26.24668194 7.35673229 22.96755411 6.0625 19.375 C5.81048828 18.68792969 5.55847656 18.00085938 5.29882812 17.29296875 C4.78859495 15.90189826 4.2816077 14.50963301 3.77783203 13.11621094 C3.24671912 11.67123707 2.70008279 10.23189856 2.14013672 8.79785156 C0 3.30613256 0 3.30613256 0 0 Z " fill="#972E8E" transform="translate(397,353)"/>
<path d="M0 0 C0.66 0 1.32 0 2 0 C5.20874449 4.04580827 6.08937016 8.75055864 7.25390625 13.671875 C7.50011719 14.44015625 7.74632812 15.2084375 8 16 C8.66 16.33 9.32 16.66 10 17 C10 20.3 10 23.6 10 27 C7.3368765 24.3368765 6.65773723 21.32200628 5.5625 17.8125 C4.31383835 13.85380927 3.03791465 9.99121149 1.33984375 6.19921875 C0 3 0 3 0 0 Z " fill="#A5329E" transform="translate(387,326)"/>
<path d="M0 0 C0.33 0 0.66 0 1 0 C0.67 6.93 0.34 13.86 0 21 C-0.66 21 -1.32 21 -2 21 C-2 22.98 -2 24.96 -2 27 C-2.66 27 -3.32 27 -4 27 C-4.66 30.3 -5.32 33.6 -6 37 C-7.15701777 33.52894669 -6.80355365 32.62348804 -5.8125 29.1875 C-3.25028986 19.59107407 -1.70827715 9.77724402 0 0 Z " fill="#AC34A2" transform="translate(231,260)"/>
<path d="M0 0 C1.258125 -0.020625 2.51625 -0.04125 3.8125 -0.0625 C4.52019531 -0.07410156 5.22789062 -0.08570312 5.95703125 -0.09765625 C8 0 8 0 11 1 C12.89470816 1.0685495 14.7916834 1.08480372 16.6875 1.0625 C17.68136719 1.05347656 18.67523438 1.04445313 19.69921875 1.03515625 C20.45847656 1.02355469 21.21773438 1.01195313 22 1 C22.33 1.99 22.66 2.98 23 4 C23.66 4.66 24.32 5.32 25 6 C23.25 6.625 23.25 6.625 21 7 C20.45085937 6.70867187 19.90171875 6.41734375 19.3359375 6.1171875 C15.551587 4.30728074 11.41855914 3.85220432 7.3125 3.14453125 C2.20598139 2.20598139 2.20598139 2.20598139 0 0 Z " fill="#CA36BE" transform="translate(409,122)"/>
<path d="M0 0 C1.16306443 3.54950034 0.92365049 6.55823948 0.5625 10.25 C0.46066406 11.32765625 0.35882813 12.4053125 0.25390625 13.515625 C0.17011719 14.33546875 0.08632812 15.1553125 0 16 C-0.66 16 -1.32 16 -2 16 C-2 18.64 -2 21.28 -2 24 C-2.99 24 -3.98 24 -5 24 C-4.41640925 15.68383188 -2.26200586 7.98540674 0 0 Z " fill="#B636AC" transform="translate(213,344)"/>
<path d="M0 0 C1.1055189 0.93590504 2.20935453 1.87379858 3.3125 2.8125 C3.92738281 3.33457031 4.54226563 3.85664062 5.17578125 4.39453125 C8.51952278 7.3373102 8.51952278 7.3373102 10 9 C10 9.66 10 10.32 10 11 C11.32 11.66 12.64 12.32 14 13 C14 13.99 14 14.98 14 16 C11.66471585 15.82701599 10.30822418 15.29774631 8.62109375 13.66796875 C5 9.42788462 5 9.42788462 5 7 C3.68 6.67 2.36 6.34 1 6 C0.67 4.02 0.34 2.04 0 0 Z " fill="#C13AB3" transform="translate(498,84)"/>
<path d="M0 0 C0.5625 1.9375 0.5625 1.9375 1 4 C0.67 4.33 0.34 4.66 0 5 C0.04125 6.2375 0.0825 7.475 0.125 8.75 C0.18874463 12.73758101 -0.8390692 14.62894795 -3 18 C-3.71923208 21.69523952 -3.71923208 21.69523952 -4 25 C-4.99 25 -5.98 25 -7 25 C-7.66 26.32 -8.32 27.64 -9 29 C-8.65272656 24.71696087 -7.3433742 21.44455634 -5.5 17.625 C-3.25669346 12.90055786 -2.45352232 9.17015444 -2 4 C-0.9375 1.5 -0.9375 1.5 0 0 Z " fill="#A9329E" transform="translate(113,312)"/>
<path d="M0 0 C0.66 0 1.32 0 2 0 C2 0.99 2 1.98 2 3 C2.66 3 3.32 3 4 3 C4 9.6 4 16.2 4 23 C3.34 23.33 2.68 23.66 2 24 C1.93941406 22.9378125 1.87882812 21.875625 1.81640625 20.78125 C1.20729762 10.36284897 1.20729762 10.36284897 0 0 Z " fill="#C33BB7" transform="translate(445,146)"/>
<path d="M0 0 C-3.38779144 3.58707329 -6.73545141 6.49689539 -11 9 C-11.99 9 -12.98 9 -14 9 C-14 8.01 -14 7.02 -14 6 C-12.35 6 -10.7 6 -9 6 C-9.33 4.35 -9.66 2.7 -10 1 C-6.78548731 -0.60725635 -3.56387464 -0.05748185 0 0 Z " fill="#C134B6" transform="translate(121,369)"/>
<path d="M0 0 C0.66 0 1.32 0 2 0 C2 0.99 2 1.98 2 3 C2.66 3 3.32 3 4 3 C3.125 7.75 3.125 7.75 2 10 C1.34 10 0.68 10 0 10 C-0.33 10.99 -0.66 11.98 -1 13 C-1.33 11.68 -1.66 10.36 -2 9 C-1.34 9 -0.68 9 0 9 C0 8.01 0 7.02 0 6 C-1.32 6 -2.64 6 -4 6 C-2.84826645 3.53199953 -1.95216435 1.95216435 0 0 Z " fill="#D336C7" transform="translate(508,211)"/>
<path d="M0 0 C1.32 0 2.64 0 4 0 C4 2.31 4 4.62 4 7 C4.66 7 5.32 7 6 7 C6 10.3 6 13.6 6 17 C4 16 4 16 3.18359375 13.92578125 C1.86346644 9.30187984 0.62903763 4.78068601 0 0 Z " fill="#B935AF" transform="translate(375,292)"/>
<path d="M0 0 C0.96229898 3.06605982 0.98765741 5.13153871 0.29296875 8.2578125 C0.11830078 9.04800781 -0.05636719 9.83820313 -0.23632812 10.65234375 C-0.5215332 11.87630859 -0.5215332 11.87630859 -0.8125 13.125 C-0.99103516 13.94871094 -1.16957031 14.77242187 -1.35351562 15.62109375 C-2.74069114 21.74069114 -2.74069114 21.74069114 -5 24 C-5.15639125 18.93683317 -4.62766071 14.49601562 -3.5 9.5625 C-3.2215625 8.32628906 -2.943125 7.09007812 -2.65625 5.81640625 C-2.4396875 4.88699219 -2.223125 3.95757812 -2 3 C-1.34 3 -0.68 3 0 3 C0 2.01 0 1.02 0 0 Z " fill="#A7329B" transform="translate(172,239)"/>
<path d="M0 0 C0.66 0 1.32 0 2 0 C1.55237406 5.08880011 0.86880405 9.93659397 -0.45703125 14.87109375 C-1.47840057 18.87574324 -2.21850726 22.94288876 -3 27 C-3.33 27 -3.66 27 -4 27 C-4 22.38 -4 17.76 -4 13 C-3.34 13 -2.68 13 -2 13 C-1.05675742 8.68803391 -0.51958285 4.37934119 0 0 Z " fill="#A933A0" transform="translate(343,123)"/>
<path d="M0 0 C0.33 0 0.66 0 1 0 C0.88541307 1.43836751 0.75790884 2.87570966 0.625 4.3125 C0.55539063 5.11300781 0.48578125 5.91351563 0.4140625 6.73828125 C0 9 0 9 -2 12 C-2.33 11.34 -2.66 10.68 -3 10 C-3.66 10.66 -4.32 11.32 -5 12 C-5 8.37 -5 4.74 -5 1 C-3.68 1.33 -2.36 1.66 -1 2 C-0.67 1.34 -0.34 0.68 0 0 Z " fill="#FC30E9" transform="translate(175,225)"/>
<path d="M0 0 C0.33 0 0.66 0 1 0 C1.02686553 1.97909398 1.04633375 3.95828971 1.0625 5.9375 C1.07410156 7.03964844 1.08570313 8.14179687 1.09765625 9.27734375 C1 12 1 12 0 13 C-0.23363881 14.84891946 -0.41303635 16.70488031 -0.5625 18.5625 C-0.64628906 19.57441406 -0.73007813 20.58632812 -0.81640625 21.62890625 C-0.87699219 22.41136719 -0.93757812 23.19382813 -1 24 C-1.99 24 -2.98 24 -4 24 C-2.99851833 15.91356821 -1.94661021 7.92548442 0 0 Z " fill="#A4309A" transform="translate(158,118)"/>
<path d="M0 0 C0.33 0 0.66 0 1 0 C1.366882 8.62172694 -0.81808955 16.04522388 -4 24 C-4.66 24 -5.32 24 -6 24 C-5.69075786 21.89535207 -5.3774944 19.7912947 -5.0625 17.6875 C-4.88847656 16.51574219 -4.71445313 15.34398437 -4.53515625 14.13671875 C-4 11 -4 11 -3 8 C-2.34 8 -1.68 8 -1 8 C-0.67 5.36 -0.34 2.72 0 0 Z " fill="#BA39B0" transform="translate(226,289)"/>
<path d="M0 0 C0.99 0.99 1.98 1.98 3 3 C1.50723624 8.39691512 -0.19695845 13.69905784 -2 19 C-2.33 19 -2.66 19 -3 19 C-3 16.69 -3 14.38 -3 12 C-3.99 11.67 -4.98 11.34 -6 11 C-5.38125 10.67 -4.7625 10.34 -4.125 10 C-0.98415875 7.04391412 -0.82441798 4.19079141 0 0 Z " fill="#C136B5" transform="translate(328,189)"/>
<path d="M0 0 C0.33 0 0.66 0 1 0 C0.86754078 6.22558325 -1.40819627 9.29813169 -5.40625 13.984375 C-7.19146367 16.00713576 -7.19146367 16.00713576 -8 19 C-8.66 19 -9.32 19 -10 19 C-10.33 17.35 -10.66 15.7 -11 14 C-10.01 14 -9.02 14 -8 14 C-8 13.01 -8 12.02 -8 11 C-7.01 11 -6.02 11 -5 11 C-4.01 8.03 -3.02 5.06 -2 2 C-1.34 2 -0.68 2 0 2 C0 1.34 0 0.68 0 0 Z " fill="#9E3394" transform="translate(75,334)"/>
<path d="M0 0 C0.33 0 0.66 0 1 0 C1.33859902 6.17096719 0.08339806 11.49333809 -1.5 17.4375 C-1.73847656 18.35982422 -1.97695312 19.28214844 -2.22265625 20.23242188 C-2.80761228 22.49035216 -3.40020296 24.74597547 -4 27 C-4.33 27 -4.66 27 -5 27 C-4.855625 25.7625 -4.71125 24.525 -4.5625 23.25 C-4.00093028 18.3440645 -3.67473969 13.43236547 -3.37890625 8.50390625 C-3 6 -3 6 -1 4 C-0.3574765 1.93125966 -0.3574765 1.93125966 0 0 Z " fill="#9E3091" transform="translate(194,143)"/>
<path d="M0 0 C0.33 0 0.66 0 1 0 C1.061875 1.051875 1.12375 2.10375 1.1875 3.1875 C2.17404642 7.81667934 3.15048267 9.27325856 7 12 C10.00174266 12.67878603 12.92745203 12.92636595 16 13 C16 13.66 16 14.32 16 15 C12.7 15 9.4 15 6 15 C6 14.34 6 13.68 6 13 C5.01 13 4.02 13 3 13 C1.32421875 11.82421875 1.32421875 11.82421875 0 10 C-0.29296875 7.51953125 -0.29296875 7.51953125 -0.1875 4.8125 C-0.16042969 3.91144531 -0.13335937 3.01039063 -0.10546875 2.08203125 C-0.07066406 1.39496094 -0.03585938 0.70789063 0 0 Z " fill="#A32F9B" transform="translate(63,356)"/>
<path d="M0 0 C1.20183288 3.64137424 0.94178515 6.83213998 0.625 10.625 C0.53476563 11.77226562 0.44453125 12.91953125 0.3515625 14.1015625 C0 17 0 17 -1 19 C-1.99 18.67 -2.98 18.34 -4 18 C-2.07289294 5.33029613 -2.07289294 5.33029613 0 0 Z " fill="#B033A6" transform="translate(249,183)"/>
<path d="M0 0 C5.49315371 0.61035041 5.49315371 0.61035041 7.6809082 2.29223633 C9.29556639 4.38265536 9.35191325 5.3985125 9.29296875 8.01171875 C9.28330078 8.76904297 9.27363281 9.52636719 9.26367188 10.30664062 C9.23853516 11.09232422 9.21339844 11.87800781 9.1875 12.6875 C9.17396484 13.48478516 9.16042969 14.28207031 9.14648438 15.10351562 C9.11117089 17.06929967 9.05736447 19.03473582 9 21 C8.67 21 8.34 21 8 21 C7.98582031 20.13117188 7.97164062 19.26234375 7.95703125 18.3671875 C7.89070691 10.80956295 7.89070691 10.80956295 4.5625 4.3125 C3.716875 3.549375 2.87125 2.78625 2 2 C1.34 1.34 0.68 0.68 0 0 Z " fill="#98298E" transform="translate(156,72)"/>
<path d="M0 0 C4.95 0 9.9 0 15 0 C15 0.33 15 0.66 15 1 C14.25234375 1.04898438 13.5046875 1.09796875 12.734375 1.1484375 C11.74953125 1.22320312 10.7646875 1.29796875 9.75 1.375 C8.77546875 1.44460937 7.8009375 1.51421875 6.796875 1.5859375 C4.06634573 1.99017787 2.42366635 2.76813652 0 4 C-1.32 4 -2.64 4 -4 4 C-4 4.66 -4 5.32 -4 6 C-5.98 6.99 -7.96 7.98 -10 9 C-10 8.01 -10 7.02 -10 6 C-7.17455888 3.27920485 -4.76931537 2.71311372 -1 2 C-0.67 1.34 -0.34 0.68 0 0 Z " fill="#9D2C93" transform="translate(227,69)"/>
<path d="M0 0 C0.66 0 1.32 0 2 0 C2 2.31 2 4.62 2 7 C1.34 7 0.68 7 0 7 C0.061875 8.0725 0.12375 9.145 0.1875 10.25 C-0.00543309 14.10866187 -0.39665076 15.28817788 -3 18 C-3.42765417 11.58518742 -1.85743168 6.11404596 0 0 Z " fill="#B83AAE" transform="translate(137,212)"/>
<path d="M0 0 C-5.24882694 3.17692157 -10.01488629 3.65697965 -16 4 C-16 3.34 -16 2.68 -16 2 C-12.92952329 0.25054234 -10.38478525 -0.36795239 -6.875 -0.6875 C-5.57175781 -0.81705078 -5.57175781 -0.81705078 -4.2421875 -0.94921875 C-2 -1 -2 -1 0 0 Z " fill="#E844DD" transform="translate(107,379)"/>
<path d="M0 0 C1.26026798 2.52053595 0.91874445 3.8542098 0.5625 6.625 C0.46066406 7.44226563 0.35882813 8.25953125 0.25390625 9.1015625 C0.17011719 9.72804688 0.08632812 10.35453125 0 11 C-2.31 11.66 -4.62 12.32 -7 13 C-6.02325896 11.01963514 -5.04354018 9.04073867 -4.0625 7.0625 C-3.51722656 5.96035156 -2.97195312 4.85820312 -2.41015625 3.72265625 C-1 1 -1 1 0 0 Z " fill="#C137B5" transform="translate(102,344)"/>
<path d="M0 0 C0.66 0.66 1.32 1.32 2 2 C1.09636719 2.04898437 0.19273438 2.09796875 -0.73828125 2.1484375 C-1.91777344 2.22320312 -3.09726562 2.29796875 -4.3125 2.375 C-6.07013672 2.47941406 -6.07013672 2.47941406 -7.86328125 2.5859375 C-11.15699887 2.78613747 -11.15699887 2.78613747 -14 5 C-16.1875 4.625 -16.1875 4.625 -18 4 C-12.18370097 -0.13603487 -7.10753578 -1.0136784 0 0 Z " fill="#97338E" transform="translate(62,310)"/>
<path d="M0 0 C0.33 0 0.66 0 1 0 C0.7866206 1.52921905 0.5708558 3.05812087 0.34765625 4.5859375 C0.07409593 6.48549117 -0.18613657 8.38696451 -0.44140625 10.2890625 C-0.60511719 11.45179688 -0.76882813 12.61453125 -0.9375 13.8125 C-1.09089844 14.93269531 -1.24429687 16.05289062 -1.40234375 17.20703125 C-2 20 -2 20 -4 22 C-4.20852314 15.59370576 -4.1583195 10.07027358 -2 4 C-1.34 4 -0.68 4 0 4 C0 2.68 0 1.36 0 0 Z " fill="#912A8A" transform="translate(308,281)"/>
<path d="M0 0 C2.15264475 2.15264475 2.59802993 3.33943146 3.5 6.1875 C3.75394531 6.98414063 4.00789063 7.78078125 4.26953125 8.6015625 C5.22059365 11.72430214 6.12975932 14.85374523 7 18 C6.34 18 5.68 18 5 18 C5 17.34 5 16.68 5 16 C4.34 16 3.68 16 3 16 C3 15.01 3 14.02 3 13 C2.34 13 1.68 13 1 13 C0.67 8.71 0.34 4.42 0 0 Z " fill="#A13199" transform="translate(452,272)"/>
<path d="M0 0 C0.33 0 0.66 0 1 0 C1.33 5.28 1.66 10.56 2 16 C0.68 15.67 -0.64 15.34 -2 15 C-2.22577402 9.5814234 -1.46670113 5.22512279 0 0 Z " fill="#F03FE3" transform="translate(525,136)"/>
<path d="M0 0 C0.33 1.32 0.66 2.64 1 4 C2.65 3.67 4.3 3.34 6 3 C6 2.67 6 2.34 6 2 C8.64 2 11.28 2 14 2 C14 2.66 14 3.32 14 4 C15.65 4.33 17.3 4.66 19 5 C19 5.66 19 6.32 19 7 C18.49984375 6.84660156 17.9996875 6.69320312 17.484375 6.53515625 C14.09672234 5.80542604 10.70038481 5.63643523 7.25 5.4375 C6.55261719 5.39431641 5.85523438 5.35113281 5.13671875 5.30664062 C3.42468078 5.20110404 1.71236439 5.1001009 0 5 C0 3.35 0 1.7 0 0 Z " fill="#A52F9D" transform="translate(137,65)"/>
<path d="M0 0 C0.99 0.33 1.98 0.66 3 1 C4.16796875 3.94140625 4.16796875 3.94140625 5.1875 7.5625 C5.53167969 8.76003906 5.87585938 9.95757812 6.23046875 11.19140625 C6.48441406 12.11824219 6.73835938 13.04507812 7 14 C6.01 14 5.02 14 4 14 C2.74335022 11.09399739 2 9.20395416 2 6 C1.34 6 0.68 6 0 6 C0 4.02 0 2.04 0 0 Z " fill="#BE36B7" transform="translate(445,258)"/>
<path d="M0 0 C0.99 0 1.98 0 3 0 C1.61964507 2.85059343 0.10703513 5.55880904 -1.5625 8.25 C-1.99691406 8.95640625 -2.43132812 9.6628125 -2.87890625 10.390625 C-3.43384766 11.18726562 -3.43384766 11.18726562 -4 12 C-4.33 12 -4.66 12 -5 12 C-5 8.7 -5 5.4 -5 2 C-3.68 2 -2.36 2 -1 2 C-0.67 1.34 -0.34 0.68 0 0 Z " fill="#B934A9" transform="translate(214,78)"/>
<path d="M0 0 C0.33 0 0.66 0 1 0 C1.29530838 6.49678438 0.17293889 12.6221448 -1 19 C-1.99 19 -2.98 19 -4 19 C-3.26309887 12.51527007 -1.64681249 6.30760257 0 0 Z " fill="#A03096" transform="translate(254,161)"/>
<path d="M0 0 C0.99 0 1.98 0 3 0 C-0.00366684 9.77789419 -0.00366684 9.77789419 -3 14 C-3.33 14 -3.66 14 -4 14 C-4 12.35 -4 10.7 -4 9 C-3.34 9 -2.68 9 -2 9 C-1.7834375 7.88625 -1.7834375 7.88625 -1.5625 6.75 C-1.09812508 4.47972261 -0.58136431 2.24240521 0 0 Z " fill="#B136A7" transform="translate(149,322)"/>
<path d="M0 0 C1.16306443 3.54950034 0.92365049 6.55823948 0.5625 10.25 C0.46066406 11.32765625 0.35882813 12.4053125 0.25390625 13.515625 C0.17011719 14.33546875 0.08632813 15.1553125 0 16 C-0.66 16 -1.32 16 -2 16 C-2 16.99 -2 17.98 -2 19 C-2.66 19 -3.32 19 -4 19 C-2.75297849 12.64549677 -1.42635741 6.31672565 0 0 Z " fill="#A22E9A" transform="translate(271,86)"/>
<path d="M0 0 C1.32 0.33 2.64 0.66 4 1 C1.92856799 5.03384128 0.03384128 6.92856799 -4 9 C-4 7.35 -4 5.7 -4 4 C-2.68 3.67 -1.36 3.34 0 3 C0 2.01 0 1.02 0 0 Z " fill="#BC35B2" transform="translate(502,223)"/>
<path d="M0 0 C5.95080896 1.19016179 11.001767 3.36204972 15 8 C12.6875 8.25 12.6875 8.25 10 8 C9.54625 7.360625 9.0925 6.72125 8.625 6.0625 C7.04070794 3.59458849 7.04070794 3.59458849 3.3125 3.25 C2.219375 3.1675 1.12625 3.085 0 3 C0 2.01 0 1.02 0 0 Z " fill="#A62F99" transform="translate(473,70)"/>
<path d="M0 0 C0.33 0 0.66 0 1 0 C1.10853491 1.74861792 1.18583428 3.49919241 1.25 5.25 C1.29640625 6.22453125 1.3428125 7.1990625 1.390625 8.203125 C0.90282884 11.69574548 -0.33323172 12.79519158 -3 15 C-2.69052329 13.06201479 -2.37731166 11.12462574 -2.0625 9.1875 C-1.88847656 8.10855469 -1.71445313 7.02960938 -1.53515625 5.91796875 C-1 3 -1 3 0 0 Z " fill="#AC36A3" transform="translate(146,172)"/>
<path d="M0 0 C0.33 0 0.66 0 1 0 C1.45510807 6.67491831 -0.2327574 12.59374557 -2 19 C-3.03953312 15.68599967 -3.0046621 12.94617926 -2.6875 9.5 C-2.60886719 8.5615625 -2.53023438 7.623125 -2.44921875 6.65625 C-2.01072654 4.06342647 -1.30741493 2.26262828 0 0 Z " fill="#982E8E" transform="translate(333,171)"/>
<path d="M0 0 C4 6 4 6 4 11 C0.37 11 -3.26 11 -7 11 C-7 10.67 -7 10.34 -7 10 C-4.36 10 -1.72 10 1 10 C0.67 6.7 0.34 3.4 0 0 Z " fill="#A8399B" transform="translate(495,377)"/>
<path d="M0 0 C0.66 0 1.32 0 2 0 C2 0.99 2 1.98 2 3 C2.66 3 3.32 3 4 3 C6.42857143 9.28571429 6.42857143 9.28571429 5 13 C5 12.34 5 11.68 5 11 C4.34 11 3.68 11 3 11 C2.49384702 9.73160474 1.99530901 8.46016898 1.5 7.1875 C1.2215625 6.47980469 0.943125 5.77210938 0.65625 5.04296875 C0 3 0 3 0 0 Z " fill="#B83CAE" transform="translate(397,353)"/>
<path d="M0 0 C2.79081339 1.3954067 3.03903006 3.01419041 4.1875 5.875 C4.55230469 6.75929688 4.91710937 7.64359375 5.29296875 8.5546875 C6 11 6 11 5 14 C1.54499217 11.33022122 0.94383648 8.13835997 0 4 C0 2.68 0 1.36 0 0 Z " fill="#9F3195" transform="translate(469,316)"/>
<path d="M0 0 C0.66 0 1.32 0 2 0 C2.33 3.63 2.66 7.26 3 11 C2.01 11.33 1.02 11.66 0 12 C-0.92844389 7.66726186 -0.92844389 4.33273814 0 0 Z " fill="#C938BF" transform="translate(233,251)"/>
<path d="M0 0 C5.52677733 -0.19392201 9.75614911 0.2520497 15 2 C15 2.66 15 3.32 15 4 C9.76119922 3.44854729 5.02649303 2.57077907 0 1 C0 0.67 0 0.34 0 0 Z " fill="#B637A8" transform="translate(409,122)"/>
<path d="M0 0 C2.78712092 1.39356046 3.26463329 3.16505673 4.625 5.9375 C5.07101562 6.83339844 5.51703125 7.72929688 5.9765625 8.65234375 C7 11 7 11 7 13 C5 13 5 13 2.9375 11 C0.45202508 7.1515227 0.30733252 4.53315471 0 0 Z " fill="#A9309B" transform="translate(512,99)"/>
<path d="M0 0 C-0.36504064 5.66442374 -1.0554321 10.00703705 -4 15 C-4.33 15 -4.66 15 -5 15 C-5.2417473 10.89029588 -4.34352346 7.86262996 -3 4 C-3 3.01 -3 2.02 -3 1 C-1 0 -1 0 0 0 Z " fill="#B93CB2" transform="translate(206,98)"/>
<path d="M0 0 C5.28 0 10.56 0 16 0 C15.34 2.97 14.68 5.94 14 9 C13.67 9 13.34 9 13 9 C13 6.36 13 3.72 13 1 C8.71 1 4.42 1 0 1 C0 0.67 0 0.34 0 0 Z " fill="#922D88" transform="translate(229,60)"/>
<path d="M0 0 C0.99 0 1.98 0 3 0 C4.45184478 4.53701494 5.23509196 8.18061476 5 13 C2.2946129 8.94191935 0 4.95110601 0 0 Z " fill="#AD30A2" transform="translate(382,313)"/>
<path d="M0 0 C1.485 0.99 1.485 0.99 3 2 C3 2.99 3 3.98 3 5 C3.66 5 4.32 5 5 5 C5.66 6.65 6.32 8.3 7 10 C5.68 10 4.36 10 3 10 C2.49596232 8.70990357 1.99690074 7.41786211 1.5 6.125 C1.2215625 5.40570313 0.943125 4.68640625 0.65625 3.9453125 C0 2 0 2 0 0 Z " fill="#ED3DDC" transform="translate(407,377)"/>
<path d="M0 0 C3.36338044 3.36338044 4 6.28835716 4 11 C3.01 10.67 2.02 10.34 1 10 C-0.60725635 6.78548731 -0.05748185 3.56387464 0 0 Z " fill="#AA319D" transform="translate(480,341)"/>
<path d="M0 0 C1.31534494 3.65857532 0.65468309 6.08026481 -0.4375 9.75 C-0.86869141 11.22726562 -0.86869141 11.22726562 -1.30859375 12.734375 C-1.53675781 13.48203125 -1.76492188 14.2296875 -2 15 C-2.33 15 -2.66 15 -3 15 C-3.02698189 13.37509046 -3.04638757 11.75005367 -3.0625 10.125 C-3.07410156 9.22007812 -3.08570313 8.31515625 -3.09765625 7.3828125 C-3 5 -3 5 -2 3 C-1.34 3 -0.68 3 0 3 C0 2.01 0 1.02 0 0 Z " fill="#962F8F" transform="translate(294,343)"/>
<path d="M0 0 C1.60938465 2.41407698 2.65490738 4.34044437 3.6875 7 C3.95949219 7.680625 4.23148437 8.36125 4.51171875 9.0625 C5 11 5 11 4 14 C3.67 12.35 3.34 10.7 3 9 C2.34 9 1.68 9 1 9 C-0.4783226 6.04335481 -0.06032783 3.25770263 0 0 Z " fill="#AE36A1" transform="translate(464,302)"/>
<path d="M0 0 C0.33 0 0.66 0 1 0 C1.05451714 2.04136395 1.09302485 4.08315856 1.125 6.125 C1.14820313 7.26195312 1.17140625 8.39890625 1.1953125 9.5703125 C0.99672109 13.05757767 0.2524801 15.7553862 -1 19 C-1.33 19 -1.66 19 -2 19 C-2 16.36 -2 13.72 -2 11 C-1.34 11 -0.68 11 0 11 C0 7.37 0 3.74 0 0 Z " fill="#E342D5" transform="translate(303,293)"/>
<path d="M0 0 C1.79068573 2.6860286 2.66055791 4.6626589 3.625 7.6875 C3.88539063 8.49574219 4.14578125 9.30398438 4.4140625 10.13671875 C4.60742188 10.75160156 4.80078125 11.36648438 5 12 C4.01 12 3.02 12 2 12 C2 10.68 2 9.36 2 8 C1.34 8 0.68 8 0 8 C0 5.36 0 2.72 0 0 Z " fill="#A734A0" transform="translate(459,290)"/>
<path d="M0 0 C-1.33333333 0.66666667 -2.66666667 1.33333333 -4 2 C-4.8971875 2.556875 -4.8971875 2.556875 -5.8125 3.125 C-8.89997177 4.35998871 -11.71225123 4.12645188 -15 4 C-10.98917213 -0.01082787 -5.44022738 -0.26537695 0 0 Z " fill="#A4339C" transform="translate(463,254)"/>
<path d="M0 0 C0.66 0 1.32 0 2 0 C1.88541307 1.43836751 1.75790884 2.87570966 1.625 4.3125 C1.55539063 5.11300781 1.48578125 5.91351563 1.4140625 6.73828125 C1 9 1 9 -1 12 C-1.02687279 10.18757948 -1.04633715 8.37504767 -1.0625 6.5625 C-1.07410156 5.55316406 -1.08570313 4.54382813 -1.09765625 3.50390625 C-1 1 -1 1 0 0 Z " fill="#B135A8" transform="translate(182,192)"/>
<path d="M0 0 C0.66 0.33 1.32 0.66 2 1 C1.401875 1.721875 0.80375 2.44375 0.1875 3.1875 C-1.77422196 5.70971395 -3.41723983 8.2301697 -5 11 C-5.68359375 9.234375 -5.68359375 9.234375 -6 7 C-4.78515625 5.078125 -4.78515625 5.078125 -3.0625 3.25 C-2.49660156 2.63640625 -1.93070313 2.0228125 -1.34765625 1.390625 C-0.90292969 0.93171875 -0.45820312 0.4728125 0 0 Z " fill="#A33898" transform="translate(42,315)"/>
<path d="M0 0 C-1.78614318 1.03046722 -3.57910018 2.04913236 -5.375 3.0625 C-6.87160156 3.91521484 -6.87160156 3.91521484 -8.3984375 4.78515625 C-9.25695312 5.18605469 -10.11546875 5.58695313 -11 6 C-11.66 5.67 -12.32 5.34 -13 5 C-10.83470418 2.58355702 -8.97842441 1.36405829 -5.9375 0.25 C-4.89916016 -0.14445313 -4.89916016 -0.14445313 -3.83984375 -0.546875 C-2 -1 -2 -1 0 0 Z " fill="#A03498" transform="translate(476,248)"/>
<path d="M0 0 C-0.66 2.97 -1.32 5.94 -2 9 C-2.99 8.34 -3.98 7.68 -5 7 C-5.375 4.5 -5.375 4.5 -5 2 C-2 0 -2 0 0 0 Z " fill="#DD43D2" transform="translate(65,353)"/>
<path d="M0 0 C0.66 0 1.32 0 2 0 C1.39301257 4.12751449 -0.03810791 7.3321148 -2 11 C-2.33 11 -2.66 11 -3 11 C-2.67 8.36 -2.34 5.72 -2 3 C-1.34 3 -0.68 3 0 3 C0 2.01 0 1.02 0 0 Z " fill="#A2339A" transform="translate(143,336)"/>
<path d="M0 0 C0.33 0.99 0.66 1.98 1 3 C0.67 3.33 0.34 3.66 0 4 C-0.07148199 5.35243917 -0.08399454 6.70834367 -0.0625 8.0625 C-0.041875 9.361875 -0.02125 10.66125 0 12 C-0.99 12 -1.98 12 -3 12 C-2.88601335 10.37419034 -2.75844341 8.74932843 -2.625 7.125 C-2.55539063 6.22007812 -2.48578125 5.31515625 -2.4140625 4.3828125 C-2 2 -2 2 0 0 Z " fill="#E944DC" transform="translate(38,324)"/>
<path d="M0 0 C0.5625 1.9375 0.5625 1.9375 1 4 C0.67 4.33 0.34 4.66 0 5 C0.0644582 6.99820432 0.13264472 8.99686587 0.2578125 10.9921875 C-0.07217218 13.56206818 -1.04899384 14.37586398 -3 16 C-2.88544319 14.08268082 -2.75793742 12.1661325 -2.625 10.25 C-2.55539063 9.18265625 -2.48578125 8.1153125 -2.4140625 7.015625 C-2.0271777 4.19793568 -1.44313834 2.4169634 0 0 Z " fill="#AF3AA6" transform="translate(113,312)"/>
<path d="M0 0 C1.14926266 0.95421808 2.29430541 1.91352045 3.4375 2.875 C4.07558594 3.40867187 4.71367187 3.94234375 5.37109375 4.4921875 C7 6 7 6 8 8 C5.69 7.34 3.38 6.68 1 6 C0.67 4.02 0.34 2.04 0 0 Z " fill="#B232A5" transform="translate(498,84)"/>
<path d="M0 0 C1.98 0.495 1.98 0.495 4 1 C2.02 1.99 2.02 1.99 0 3 C0 4.32 0 5.64 0 7 C2.64 7 5.28 7 8 7 C8 7.33 8 7.66 8 8 C5.03 8 2.06 8 -1 8 C-1.125 2.25 -1.125 2.25 0 0 Z " fill="#CE4EC4" transform="translate(139,61)"/>
<path d="M0 0 C0.99 0.33 1.98 0.66 3 1 C3 4.3 3 7.6 3 11 C0.60236815 8.60236815 0.65719414 7.66726502 0.375 4.375 C0.30023438 3.55773437 0.22546875 2.74046875 0.1484375 1.8984375 C0.09945313 1.27195312 0.05046875 0.64546875 0 0 Z " fill="#C63BBA" transform="translate(394,342)"/>
<path d="M0 0 C0.99 0.66 1.98 1.32 3 2 C2 5 2 5 -0.0625 6.1875 C-0.701875 6.455625 -1.34125 6.72375 -2 7 C-2.125 4.625 -2.125 4.625 -2 2 C-1.34 1.34 -0.68 0.68 0 0 Z " fill="#F33BE2" transform="translate(389,319)"/>
<path d="M0 0 C0.99 0 1.98 0 3 0 C2.67 1.65 2.34 3.3 2 5 C0.35 5 -1.3 5 -3 5 C-2.67 4.01 -2.34 3.02 -2 2 C-1.34 2 -0.68 2 0 2 C0 1.34 0 0.68 0 0 Z " fill="#B939AE" transform="translate(434,193)"/>
<path d="M0 0 C1.98 0.99 3.96 1.98 6 3 C6 5.31 6 7.62 6 10 C4.5 8 4.5 8 3 6 C2.443125 5.29875 1.88625 4.5975 1.3125 3.875 C0 2 0 2 0 0 Z " fill="#A02F97" transform="translate(439,135)"/>
<path d="M0 0 C0.33 0 0.66 0 1 0 C1 3.96 1 7.92 1 12 C0.01 12.33 -0.98 12.66 -2 13 C-1.855625 12.154375 -1.71125 11.30875 -1.5625 10.4375 C-0.9941203 6.96406851 -0.48797607 3.48554338 0 0 Z " fill="#972E8E" transform="translate(274,71)"/>
<path d="M0 0 C0.99 0 1.98 0 3 0 C2.5359375 1.1446875 2.5359375 1.1446875 2.0625 2.3125 C1.32106407 4.18789677 0.63771783 6.08684652 0 8 C-0.66 8 -1.32 8 -2 8 C-2.33 6.35 -2.66 4.7 -3 3 C-2.01 3 -1.02 3 0 3 C0 2.01 0 1.02 0 0 Z " fill="#B236AB" transform="translate(67,345)"/>
<path d="M0 0 C0.33 0 0.66 0 1 0 C0.88490339 1.41750563 0.75746342 2.83401169 0.625 4.25 C0.55539062 5.03890625 0.48578125 5.8278125 0.4140625 6.640625 C0 9 0 9 -2 13 C-2 9.7 -2 6.4 -2 3 C-1.34 3 -0.68 3 0 3 C0 2.01 0 1.02 0 0 Z " fill="#A4359A" transform="translate(297,328)"/>
<path d="M0 0 C1.07310858 3.27185553 0.89263102 5.42947592 0.0625 8.75 C-0.13214844 9.54921875 -0.32679688 10.3484375 -0.52734375 11.171875 C-0.68332031 11.77515625 -0.83929688 12.3784375 -1 13 C-1.33 13 -1.66 13 -2 13 C-2.05391993 11.20866022 -2.09275571 9.41686101 -2.125 7.625 C-2.14820313 6.62726563 -2.17140625 5.62953125 -2.1953125 4.6015625 C-2 2 -2 2 0 0 Z " fill="#8D2B84" transform="translate(166,266)"/>
<path d="M0 0 C0.33 0 0.66 0 1 0 C0.88541307 1.43836751 0.75790884 2.87570966 0.625 4.3125 C0.55539063 5.11300781 0.48578125 5.91351563 0.4140625 6.73828125 C0 9 0 9 -2 12 C-2.05422947 10.5629191 -2.09289723 9.12524538 -2.125 7.6875 C-2.14820313 6.88699219 -2.17140625 6.08648437 -2.1953125 5.26171875 C-2 3 -2 3 0 0 Z " fill="#A1309B" transform="translate(175,225)"/>
<path d="M0 0 C0.66 0 1.32 0 2 0 C3.35439668 2.70879335 3.06501451 5.00933268 3 8 C1.68 7.34 0.36 6.68 -1 6 C-0.67 4.02 -0.34 2.04 0 0 Z " fill="#CC39C1" transform="translate(518,112)"/>
<path d="M0 0 C0.33 0 0.66 0 1 0 C1.33 3.96 1.66 7.92 2 12 C1.01 12 0.02 12 -1 12 C-0.67 8.04 -0.34 4.08 0 0 Z " fill="#E840D9" transform="translate(250,180)"/>
<path d="M0 0 C2.96052484 3.36423277 3.92289822 6.69159287 5 11 C0.05973451 6.28429204 0.05973451 6.28429204 -0.125 2.3125 C-0.08375 1.549375 -0.0425 0.78625 0 0 Z " fill="#9B338E" transform="translate(475,330)"/>
<path d="M0 0 C0.33 0 0.66 0 1 0 C1.33 2.97 1.66 5.94 2 9 C1.34 9 0.68 9 0 9 C-0.66 9.66 -1.32 10.32 -2 11 C-2.24042276 6.91281305 -1.42258812 3.82320557 0 0 Z " fill="#EC43DE" transform="translate(114,311)"/>
<path d="M0 0 C0.33 0 0.66 0 1 0 C1.36923077 5.53846154 1.36923077 5.53846154 -0.5 7.875 C-1.2425 8.431875 -1.2425 8.431875 -2 9 C-2.125 5.625 -2.125 5.625 -2 2 C-1.34 1.34 -0.68 0.68 0 0 Z " fill="#C03AB3" transform="translate(522,190)"/>
<path d="M0 0 C2.31 0.33 4.62 0.66 7 1 C7 2.65 7 4.3 7 6 C6.34 5.67 5.68 5.34 5 5 C5 4.34 5 3.68 5 3 C4.01 3 3.02 3 2 3 C2 2.34 2 1.68 2 1 C1.34 0.67 0.68 0.34 0 0 Z " fill="#AC32A0" transform="translate(432,129)"/>
<path d="M0 0 C2.375 -0.1875 2.375 -0.1875 5 0 C5.66 0.99 6.32 1.98 7 3 C2.25 4.125 2.25 4.125 0 3 C0 2.01 0 1.02 0 0 Z " fill="#EF3EE2" transform="translate(475,73)"/>
<path d="M0 0 C3.34373475 0.55728913 6.03312999 1.35173889 9 3 C9 3.66 9 4.32 9 5 C2.25 3.375 2.25 3.375 0 0 Z " fill="#962B8D" transform="translate(54,378)"/>
<path d="M0 0 C0.33 0.66 0.66 1.32 1 2 C-0.75 4.0625 -0.75 4.0625 -3 6 C-4.32 5.67 -5.64 5.34 -7 5 C-4.69 3.35 -2.38 1.7 0 0 Z " fill="#A7389E" transform="translate(88,363)"/>
<path d="M0 0 C0.33 0 0.66 0 1 0 C1.17835515 4.54805635 0.99785435 7.8794254 -1 12 C-1.33 12 -1.66 12 -2 12 C-1.85831863 10.56208484 -1.71148957 9.1246763 -1.5625 7.6875 C-1.48128906 6.88699219 -1.40007812 6.08648437 -1.31640625 5.26171875 C-1 3 -1 3 0 0 Z " fill="#963590" transform="translate(149,160)"/>
<path d="M0 0 C0.33 0.66 0.66 1.32 1 2 C1.66 2 2.32 2 3 2 C2.45276317 5.37462715 1.9451 7.08235 0 10 C0 6.7 0 3.4 0 0 Z " fill="#B232A5" transform="translate(195,133)"/>
<path d="M0 0 C1.32 0.66 2.64 1.32 4 2 C4 2.66 4 3.32 4 4 C2.68 4.33 1.36 4.66 0 5 C-0.5625 3.0625 -0.5625 3.0625 -1 1 C-0.67 0.67 -0.34 0.34 0 0 Z " fill="#FD2EF1" transform="translate(505,99)"/>
<path d="M0 0 C-2.8125 1.5625 -2.8125 1.5625 -6 3 C-6.99 2.67 -7.98 2.34 -9 2 C-8.67 1.34 -8.34 0.68 -8 0 C-2.55072464 -1.27536232 -2.55072464 -1.27536232 0 0 Z " fill="#922C8A" transform="translate(107,379)"/>
<path d="M0 0 C0.66 0.99 1.32 1.98 2 3 C1.67 3.99 1.34 4.98 1 6 C0.01 6.33 -0.98 6.66 -2 7 C-2.33 6.01 -2.66 5.02 -3 4 C-2.34 4 -1.68 4 -1 4 C-0.67 2.68 -0.34 1.36 0 0 Z " fill="#E83DD9" transform="translate(106,337)"/>
<path d="M0 0 C3.465 1.98 3.465 1.98 7 4 C6.67 4.66 6.34 5.32 6 6 C3.5625 5.25 3.5625 5.25 1 4 C0.1875 1.875 0.1875 1.875 0 0 Z " fill="#A8359C" transform="translate(66,313)"/>
<path d="M0 0 C0.99 0.495 0.99 0.495 2 1 C2.59355614 3.64860427 2.74209269 6.29197322 3 9 C1.5 7.875 1.5 7.875 0 6 C-0.1875 2.8125 -0.1875 2.8125 0 0 Z " fill="#E241D7" transform="translate(370,275)"/>
<path d="M0 0 C1.99097846 2.98646769 2.94124926 5.59687262 4 9 C3.01 9 2.02 9 1 9 C0.67 6.03 0.34 3.06 0 0 Z " fill="#A13399" transform="translate(448,263)"/>
<path d="M0 0 C0.99 0 1.98 0 3 0 C2.67 2.97 2.34 5.94 2 9 C1.67 9 1.34 9 1 9 C0.67 6.03 0.34 3.06 0 0 Z " fill="#E743DA" transform="translate(336,144)"/>
<path d="" fill="#000000" transform="translate(0,0)"/>
<path d="" fill="#000000" transform="translate(0,0)"/>
<path d="" fill="#000000" transform="translate(0,0)"/>
<path d="" fill="#000000" transform="translate(0,0)"/>
<path d="" fill="#000000" transform="translate(0,0)"/>
<path d="" fill="#000000" transform="translate(0,0)"/>
<path d="" fill="#000000" transform="translate(0,0)"/>
<path d="" fill="#000000" transform="translate(0,0)"/>
<path d="" fill="#000000" transform="translate(0,0)"/>
<path d="" fill="#000000" transform="translate(0,0)"/>
<path d="" fill="#000000" transform="translate(0,0)"/>
<path d="" fill="#000000" transform="translate(0,0)"/>
<path d="" fill="#000000" transform="translate(0,0)"/>
<path d="" fill="#000000" transform="translate(0,0)"/>
<path d="" fill="#000000" transform="translate(0,0)"/>
<path d="" fill="#000000" transform="translate(0,0)"/>
<path d="" fill="#000000" transform="translate(0,0)"/>
<path d="" fill="#000000" transform="translate(0,0)"/>
<path d="" fill="#000000" transform="translate(0,0)"/>
<path d="" fill="#000000" transform="translate(0,0)"/>
<path d="" fill="#000000" transform="translate(0,0)"/>
<path d="" fill="#000000" transform="translate(0,0)"/>
<path d="" fill="#000000" transform="translate(0,0)"/>
<path d="" fill="#000000" transform="translate(0,0)"/>
<path d="" fill="#000000" transform="translate(0,0)"/>
<path d="" fill="#000000" transform="translate(0,0)"/>
<path d="" fill="#000000" transform="translate(0,0)"/>
<path d="" fill="#000000" transform="translate(0,0)"/>
<path d="" fill="#000000" transform="translate(0,0)"/>
<path d="" fill="#000000" transform="translate(0,0)"/>
<path d="" fill="#000000" transform="translate(0,0)"/>
<path d="" fill="#000000" transform="translate(0,0)"/>
<path d="" fill="#000000" transform="translate(0,0)"/>
<path d="" fill="#000000" transform="translate(0,0)"/>
<path d="" fill="#000000" transform="translate(0,0)"/>
<path d="" fill="#000000" transform="translate(0,0)"/>
<path d="" fill="#000000" transform="translate(0,0)"/>
<path d="" fill="#000000" transform="translate(0,0)"/>
<path d="" fill="#000000" transform="translate(0,0)"/>
<path d="" fill="#000000" transform="translate(0,0)"/>
<path d="" fill="#000000" transform="translate(0,0)"/>
<path d="" fill="#000000" transform="translate(0,0)"/>
<path d="" fill="#000000" transform="translate(0,0)"/>
<path d="" fill="#000000" transform="translate(0,0)"/>
<path d="" fill="#000000" transform="translate(0,0)"/>
<path d="" fill="#000000" transform="translate(0,0)"/>
<path d="" fill="#000000" transform="translate(0,0)"/>
<path d="" fill="#000000" transform="translate(0,0)"/>
<path d="" fill="#000000" transform="translate(0,0)"/>
<path d="" fill="#000000" transform="translate(0,0)"/>
<path d="" fill="#000000" transform="translate(0,0)"/>
<path d="" fill="#000000" transform="translate(0,0)"/>
<path d="" fill="#000000" transform="translate(0,0)"/>
<path d="" fill="#000000" transform="translate(0,0)"/>
<path d="" fill="#000000" transform="translate(0,0)"/>
<path d="" fill="#000000" transform="translate(0,0)"/>
<path d="" fill="#000000" transform="translate(0,0)"/>
<path d="" fill="#000000" transform="translate(0,0)"/>
<path d="" fill="#000000" transform="translate(0,0)"/>
<path d="" fill="#000000" transform="translate(0,0)"/>
<path d="" fill="#000000" transform="translate(0,0)"/>
<path d="" fill="#000000" transform="translate(0,0)"/>
<path d="" fill="#000000" transform="translate(0,0)"/>
<path d="" fill="#000000" transform="translate(0,0)"/>
</svg>
